<svg width="192" height="59" viewBox="0 0 192 59" fill="none" xmlns="http://www.w3.org/2000/svg">
<path d="M36.5823 6.25816C32.7787 2.45454 27.5159 0.0976562 21.7084 0.0976562H6.58058C3.31769 0.0976562 0.671875 2.74348 0.671875 6.01256V21.1341L29.5178 13.3247L0.671875 42.1706H21.7084C27.518 42.1706 32.7787 39.8138 36.5823 36.0101C40.3859 32.2065 42.7428 26.9438 42.7428 21.1362C42.7448 15.3245 40.388 10.0638 36.5823 6.25816Z" fill="white"/>
<path d="M12.77 58.9981C15.3807 58.9981 17.4982 56.8807 17.4982 54.27V42.1719L0.671875 58.9981H12.77Z" fill="white"/>
<path d="M56.1973 47.7928V11.5646H64.2688V47.7928H56.1973ZM63.2844 37.5047V30.5145H69.7318C70.9783 30.5145 72.0536 30.2689 72.9555 29.7757C73.8573 29.2824 74.5549 28.5869 75.0482 27.683C75.5414 26.7811 75.787 25.7389 75.787 24.5584C75.787 23.3118 75.5414 22.2366 75.0482 21.3347C74.557 20.4328 73.8594 19.7435 72.9555 19.2667C72.0515 18.7921 70.9783 18.5526 69.7318 18.5526H63.2844V11.5625H69.3396C72.392 11.5625 75.0069 12.0723 77.1904 13.0877C79.3719 14.1051 81.0456 15.5477 82.2117 17.4196C83.3757 19.2894 83.9597 21.539 83.9597 24.1621V24.9505C83.9597 27.5096 83.3757 29.7344 82.2117 31.6207C81.0456 33.5091 79.3719 34.96 77.1904 35.9775C75.0069 36.9949 72.392 37.5026 69.3396 37.5026H63.2844V37.5047Z" fill="white"/>
<path d="M97.5439 56.8969C94.6566 56.8969 92.2853 56.6761 90.432 56.2323C88.5766 55.7886 87.2248 55.1323 86.3704 54.2635C85.516 53.3946 85.0908 52.3359 85.0908 51.0893C85.0908 49.5786 85.6893 48.3486 86.8884 47.3971C88.0854 46.4457 89.85 45.905 92.18 45.7729V44.7389C90.3742 44.7389 88.9873 44.5594 88.0214 44.1982C87.0535 43.8371 86.5685 43.1642 86.5685 42.1798C86.5685 41.2614 87.0432 40.4256 87.9967 39.6702C88.9481 38.9149 90.5228 38.3246 92.7228 37.8974V36.8634C90.7209 36.7004 89.1297 36.0358 87.9492 34.8698C86.7687 33.7058 86.1764 32.1703 86.1764 30.2675C86.1764 28.6598 86.6346 27.1903 87.555 25.8612C88.4734 24.5321 89.852 23.4651 91.6909 22.6623C93.5277 21.8595 95.8247 21.457 98.582 21.457H112.069V27.4132L103.849 26.3297V27.5102C105.981 27.8053 107.508 28.2986 108.426 28.9879C109.345 29.6772 109.805 30.6451 109.805 31.8917C109.805 33.2043 109.353 34.3703 108.451 35.3857C107.547 36.4032 106.276 37.1998 104.637 37.7736C102.996 38.3473 101.044 38.6342 98.7801 38.6342C98.3859 38.6342 97.9505 38.6177 97.4758 38.5847C96.999 38.5516 96.1219 38.4691 94.8424 38.339C94.3181 38.7993 93.9074 39.1852 93.6123 39.4968C93.3172 39.8085 93.1686 40.0954 93.1686 40.3575C93.1686 40.5535 93.2491 40.7186 93.4142 40.8487C93.5772 40.9807 93.8166 41.0695 94.1283 41.119C94.4399 41.1685 94.7763 41.1933 95.1375 41.1933H103.063C103.719 41.1933 104.579 41.2346 105.646 41.3171C106.711 41.3997 107.778 41.6535 108.845 42.0807C109.912 42.508 110.814 43.1973 111.553 44.1487C112.292 45.1001 112.661 46.4622 112.661 48.2351C112.661 50.1709 112.121 51.7869 111.037 53.083C109.954 54.379 108.296 55.3387 106.065 55.962C103.828 56.5852 100.99 56.8969 97.5439 56.8969ZM98.5779 50.5961C100.481 50.5961 101.958 50.497 103.009 50.3009C104.059 50.1049 104.788 49.7912 105.199 49.366C105.609 48.9388 105.814 48.4146 105.814 47.7913C105.814 47.2011 105.698 46.7326 105.469 46.3879C105.24 46.0433 104.945 45.8059 104.584 45.6739C104.222 45.5438 103.853 45.4613 103.475 45.4282C103.098 45.3952 102.778 45.3787 102.516 45.3787H96.1653C94.9517 45.3787 94.056 45.6656 93.4823 46.2393C92.9065 46.8131 92.6217 47.4776 92.6217 48.233C92.6217 48.8563 92.8177 49.3412 93.2119 49.6859C93.6061 50.0306 94.2376 50.2679 95.1065 50.4C95.9774 50.53 97.1332 50.5961 98.5779 50.5961ZM98.2332 34.6964C99.6428 34.6964 100.702 34.3187 101.407 33.5634C102.113 32.808 102.466 31.8566 102.466 30.7091C102.466 29.4626 102.105 28.4369 101.383 27.632C100.66 26.8291 99.6263 26.4267 98.2807 26.4267C96.9351 26.4267 95.8846 26.8291 95.1292 27.632C94.3739 28.4369 93.9982 29.4626 93.9982 30.7091C93.9982 31.4645 94.1613 32.1455 94.4894 32.7523C94.8176 33.3591 95.2923 33.8358 95.9176 34.1805C96.5429 34.5251 97.3148 34.6964 98.2332 34.6964Z" fill="white"/>
<path d="M129.638 48.7269C127.275 48.7269 125.176 48.3575 123.338 47.6187C121.499 46.8798 119.949 45.8706 118.686 44.591C117.423 43.3115 116.463 41.8441 115.807 40.1848C115.15 38.5276 114.822 36.7816 114.822 34.9427V33.8097C114.822 31.9398 115.159 30.1588 115.831 28.4685C116.504 26.7782 117.489 25.2944 118.785 24.0148C120.081 22.7352 121.647 21.726 123.486 20.9872C125.323 20.2483 127.374 19.8789 129.638 19.8789C131.968 19.8789 134.045 20.2483 135.865 20.9872C137.685 21.726 139.237 22.7352 140.517 24.0148C141.796 25.2944 142.781 26.7803 143.47 28.4685C144.159 30.1588 144.504 31.9378 144.504 33.8097V34.9427C144.504 36.7816 144.176 38.5276 143.52 40.1848C142.863 41.842 141.904 43.3094 140.641 44.591C139.378 45.8706 137.826 46.8798 135.989 47.6187C134.15 48.3575 132.032 48.7269 129.638 48.7269ZM129.638 42.0814C131.18 42.0814 132.46 41.7533 133.477 41.097C134.495 40.4407 135.275 39.5223 135.815 38.3397C136.356 37.1592 136.626 35.8467 136.626 34.402C136.626 32.8603 136.348 31.5064 135.791 30.3404C135.231 29.1764 134.437 28.2477 133.403 27.5584C132.369 26.869 131.114 26.5244 129.636 26.5244C128.192 26.5244 126.945 26.869 125.897 27.5584C124.846 28.2477 124.05 29.1743 123.509 30.3404C122.968 31.5064 122.696 32.8603 122.696 34.402C122.696 35.8467 122.958 37.1592 123.484 38.3397C124.008 39.5202 124.797 40.4407 125.847 41.097C126.898 41.7533 128.161 42.0814 129.638 42.0814Z" fill="white"/>
<path d="M146.176 17.667V11.8594H157.3V17.667H146.176ZM149.377 47.7925V11.8594H157.302V47.7925H149.377Z" fill="white"/>
<path d="M174.677 48.6781C172.774 48.6781 171.042 48.3334 169.484 47.6441C167.926 46.9548 166.572 45.9951 165.422 44.7651C164.273 43.535 163.396 42.0821 162.789 40.4084C162.18 38.7346 161.879 36.9308 161.879 34.9929V33.8599C161.879 31.924 162.166 30.1182 162.74 28.4444C163.313 26.7707 164.149 25.3033 165.249 24.0382C166.349 22.7751 167.668 21.7907 169.212 21.0848C170.753 20.379 172.477 20.0261 174.379 20.0261C176.544 20.0261 178.416 20.4946 179.991 21.4295C181.566 22.3644 182.798 23.743 183.683 25.5633C184.569 27.3857 185.062 29.6249 185.159 32.2831L183.091 30.3638V11.8555H191.016V47.7886H184.765V36.6151H185.848C185.749 39.1742 185.217 41.3577 184.249 43.1615C183.281 44.9673 181.976 46.3356 180.336 47.2726C178.695 48.2096 176.809 48.6781 174.677 48.6781ZM176.646 42.0821C177.859 42.0821 178.967 41.8118 179.968 41.269C180.969 40.7283 181.772 39.9316 182.381 38.8811C182.988 37.8307 183.291 36.5676 183.291 35.0899V33.2696C183.291 31.825 182.979 30.6114 182.356 29.627C181.733 28.6425 180.911 27.8872 179.894 27.363C178.877 26.8388 177.776 26.5746 176.596 26.5746C175.283 26.5746 174.111 26.911 173.077 27.5838C172.043 28.2566 171.232 29.175 170.642 30.3411C170.052 31.5071 169.757 32.861 169.757 34.4027C169.757 35.9774 170.052 37.3395 170.642 38.489C171.232 39.6385 172.051 40.5239 173.104 41.1472C174.15 41.7705 175.333 42.0821 176.646 42.0821Z" fill="white"/>
</svg>
