<svg width="21" height="20" viewBox="0 0 21 20" fill="none" xmlns="http://www.w3.org/2000/svg">
<path d="M14.5921 10.053C14.6132 12.323 16.5835 13.0784 16.6053 13.088C16.5887 13.1413 16.2905 14.1645 15.5673 15.2214C14.9421 16.1352 14.2932 17.0456 13.2711 17.0645C12.2667 17.083 11.9437 16.4689 10.7954 16.4689C9.64751 16.4689 9.28868 17.0456 8.33793 17.083C7.35129 17.1204 6.59994 16.0949 5.96958 15.1845C4.68145 13.3222 3.69706 9.92207 5.01885 7.62694C5.67549 6.48717 6.84895 5.76542 8.12264 5.74692C9.0915 5.72844 10.006 6.39873 10.5983 6.39873C11.1902 6.39873 12.3015 5.59264 13.4697 5.71103C13.9588 5.73138 15.3317 5.90858 16.2132 7.19893C16.1422 7.24297 14.5751 8.15523 14.5921 10.053ZM12.7045 4.47896C13.2283 3.8449 13.5809 2.96223 13.4847 2.08398C12.7297 2.11433 11.8167 2.58712 11.2751 3.22083C10.7897 3.78201 10.3647 4.68022 10.4794 5.54108C11.3209 5.60619 12.1807 5.11342 12.7045 4.47896Z" fill="#1A202C"/>
</svg>
