<svg width="77" height="3" viewBox="0 0 77 3" fill="none" xmlns="http://www.w3.org/2000/svg">
<path d="M0.5 1.5C0.5 0.671573 1.17157 0 2 0H11C11.8284 0 12.5 0.671573 12.5 1.5C12.5 2.32843 11.8284 3 11 3H2C1.17157 3 0.5 2.32843 0.5 1.5Z" fill="#D9D9D9"/>
<path d="M14.5 1.5C14.5 0.671573 15.1716 0 16 0H25C25.8284 0 26.5 0.671573 26.5 1.5C26.5 2.32843 25.8284 3 25 3H16C15.1716 3 14.5 2.32843 14.5 1.5Z" fill="#D9D9D9"/>
<path d="M28.5 1.5C28.5 0.671573 29.1716 0 30 0H47C47.8284 0 48.5 0.671573 48.5 1.5C48.5 2.32843 47.8284 3 47 3H30C29.1716 3 28.5 2.32843 28.5 1.5Z" fill="#0052FF"/>
<path d="M50.5 1.5C50.5 0.671573 51.1716 0 52 0H61C61.8284 0 62.5 0.671573 62.5 1.5C62.5 2.32843 61.8284 3 61 3H52C51.1716 3 50.5 2.32843 50.5 1.5Z" fill="#D9D9D9"/>
<path d="M64.5 1.5C64.5 0.671573 65.1716 0 66 0H75C75.8284 0 76.5 0.671573 76.5 1.5C76.5 2.32843 75.8284 3 75 3H66C65.1716 3 64.5 2.32843 64.5 1.5Z" fill="#D9D9D9"/>
</svg>
