<svg width="26" height="25" viewBox="0 0 26 25" fill="none" xmlns="http://www.w3.org/2000/svg">
<path d="M16.1217 21.3868C16.2601 20.5254 16.332 19.6418 16.332 18.7414C16.332 16.7731 15.9885 14.8851 15.3581 13.134M7.95774 20.211C9.61214 17.141 12.2077 14.6533 15.3581 13.134M15.3581 13.134C14.9853 12.0983 14.5121 11.1105 13.9503 10.1823M15.3581 13.134C17.5143 12.0941 19.9305 11.508 22.4827 11.4994M8.36973 4.58916C10.6498 5.97625 12.5682 7.89884 13.9503 10.1823M13.9503 10.1823C11.1805 12.2961 7.72404 13.5558 3.97381 13.5684M13.9503 10.1823C15.8195 8.75585 17.3759 6.94042 18.4987 4.85683M22.5395 12.5339C22.5395 17.6764 18.3707 21.8451 13.2282 21.8451C8.08578 21.8451 3.91699 17.6764 3.91699 12.5339C3.91699 7.39144 8.08578 3.22266 13.2282 3.22266C18.3707 3.22266 22.5395 7.39144 22.5395 12.5339Z" stroke="#784CFC" stroke-width="1.55187" stroke-linecap="round" stroke-linejoin="round"/>
</svg>
