<svg width="22" height="22" viewBox="0 0 22 22" fill="none" xmlns="http://www.w3.org/2000/svg">
<path d="M21 11H20C20 15.9706 15.9706 20 11 20V21V22C17.0751 22 22 17.0751 22 11H21ZM11 21V20C6.02944 20 2 15.9706 2 11H1H0C0 17.0751 4.92487 22 11 22V21ZM1 11H2C2 6.02944 6.02944 2 11 2V1V0C4.92487 0 0 4.92487 0 11H1ZM11 1V2C15.9706 2 20 6.02944 20 11H21H22C22 4.92487 17.0751 0 11 0V1ZM10 7V8H12.5V7V6H10V7ZM12.5 11V10H10V11V12H12.5V11ZM10 11H11V7H10H9V11H10ZM14.5 9H13.5C13.5 9.55228 13.0523 10 12.5 10V11V12C14.1569 12 15.5 10.6569 15.5 9H14.5ZM12.5 7V8C13.0523 8 13.5 8.44772 13.5 9H14.5H15.5C15.5 7.34315 14.1569 6 12.5 6V7ZM12.5 15V14H10V15V16H12.5V15ZM10 15H11V11H10H9V15H10ZM14.5 13H13.5C13.5 13.5523 13.0523 14 12.5 14V15V16C14.1569 16 15.5 14.6569 15.5 13H14.5ZM12.5 11V12C13.0523 12 13.5 12.4477 13.5 13H14.5H15.5C15.5 11.3431 14.1569 10 12.5 10V11ZM11.5 7H12.5V5H11.5H10.5V7H11.5ZM11.5 15H10.5V17H11.5H12.5V15H11.5ZM10 7V6H7.5V7V8H10V7ZM10 15V14H7.5V15V16H10V15Z" fill="#FAFAFA"/>
</svg>
