<svg width="26" height="26" viewBox="0 0 26 26" fill="none" xmlns="http://www.w3.org/2000/svg">
<path d="M12.2093 16.7978L9.66047 19.3466C9.06525 19.9418 8.76764 20.2394 8.80888 20.4998C8.82165 20.5804 8.85332 20.6569 8.9013 20.7229C9.05622 20.9361 9.47711 20.9361 10.3189 20.9361H16.1688C17.0106 20.9361 17.4315 20.9361 17.5864 20.7229C17.6344 20.6569 17.6661 20.5804 17.6788 20.4998C17.7201 20.2394 17.4225 19.9418 16.8272 19.3466L14.2784 16.7978M12.2093 16.7978H9.51936C7.19172 16.7978 6.0279 16.7978 5.21203 16.205C4.94854 16.0136 4.71682 15.7819 4.52538 15.5184C3.93262 14.7025 3.93262 13.5387 3.93262 11.2111V9.96956C3.93262 7.64191 3.93262 6.47809 4.52538 5.66222C4.71682 5.39873 4.94854 5.16701 5.21203 4.97558C6.0279 4.38281 7.19172 4.38281 9.51936 4.38281H16.9684C19.296 4.38281 20.4598 4.38281 21.2757 4.97558C21.5392 5.16701 21.7709 5.39873 21.9623 5.66222C22.5551 6.47809 22.5551 7.64191 22.5551 9.96956V11.2111C22.5551 13.5387 22.5551 14.7025 21.9623 15.5184C21.7709 15.7819 21.5392 16.0136 21.2757 16.205C20.4598 16.7978 19.296 16.7978 16.9684 16.7978H14.2784M12.2093 16.7978H14.2784" stroke="#3A82FF" stroke-width="1.55187" stroke-linejoin="round"/>
</svg>
