<svg width="17" height="21" viewBox="0 0 17 21" fill="none" xmlns="http://www.w3.org/2000/svg">
<path d="M15.3799 4.44826C15.3799 6.12615 12.2061 7.48636 8.29105 7.48636C4.37596 7.48636 1.20215 6.12615 1.20215 4.44826M15.3799 4.44826C15.3799 2.77036 12.2061 1.41016 8.29105 1.41016C4.37596 1.41016 1.20215 2.77036 1.20215 4.44826M15.3799 4.44826V16.6007C15.3799 18.2786 12.2061 19.6388 8.29105 19.6388C4.37596 19.6388 1.20215 18.2786 1.20215 16.6007V4.44826M15.3799 8.49906C15.3799 10.177 12.2061 11.5372 8.29105 11.5372C4.37596 11.5372 1.20215 10.177 1.20215 8.49906M15.3799 12.5499C15.3799 14.2278 12.2061 15.588 8.29105 15.588C4.37596 15.588 1.20215 14.2278 1.20215 12.5499" stroke="#09311C" stroke-width="1.51905" stroke-linejoin="round"/>
</svg>
