<svg width="120" height="44" viewBox="0 0 120 44" fill="none" xmlns="http://www.w3.org/2000/svg">
<rect x="-0.000488281" width="120" height="43.9998" rx="21.9999" fill="#FAFAFA"/>
<rect x="0.49951" y="0.499998" width="119" height="42.9998" rx="21.4999" stroke="#0052FF" stroke-opacity="0.33" stroke-width="0.999996"/>
<path d="M32.7729 12.4336C38.1577 12.4336 42.5229 16.7988 42.5229 22.1836C42.5229 27.5684 38.1577 31.9336 32.7729 31.9336C27.3882 31.9336 23.0229 27.5684 23.0229 22.1836C23.0229 16.7988 27.3882 12.4336 32.7729 12.4336ZM31.5356 19.1367C31.1215 19.1368 30.7856 19.4725 30.7856 19.8867C30.7857 20.3009 31.1215 20.6367 31.5356 20.6367H33.2603L29.9448 23.9521C29.6519 24.245 29.6519 24.7208 29.9448 25.0137C30.2377 25.3062 30.7126 25.3062 31.0054 25.0137L34.3218 21.6973V23.4219C34.3218 23.8361 34.6576 24.1719 35.0718 24.1719C35.4857 24.1716 35.8208 23.8359 35.8208 23.4219V19.8867C35.8208 19.4727 35.4857 19.137 35.0718 19.1367H31.5356Z" fill="#0052FF"/>
<path d="M52.2906 26.048V17.192H55.2906C56.0826 17.192 56.7706 17.316 57.3546 17.564C57.9386 17.804 58.4226 18.132 58.8066 18.548C59.1986 18.956 59.4906 19.416 59.6826 19.928C59.8746 20.432 59.9706 20.948 59.9706 21.476V21.74C59.9706 22.252 59.8746 22.764 59.6826 23.276C59.4906 23.788 59.1986 24.252 58.8066 24.668C58.4226 25.084 57.9386 25.42 57.3546 25.676C56.7706 25.924 56.0826 26.048 55.2906 26.048H52.2906ZM55.4106 18.272H53.4666V24.968H55.4106C56.1146 24.968 56.7146 24.82 57.2106 24.524C57.7146 24.228 58.0986 23.828 58.3626 23.324C58.6346 22.812 58.7706 22.24 58.7706 21.608C58.7706 20.952 58.6346 20.376 58.3626 19.88C58.0986 19.376 57.7146 18.984 57.2106 18.704C56.7146 18.416 56.1146 18.272 55.4106 18.272ZM64.3388 26.216C63.7788 26.216 63.2948 26.12 62.8868 25.928C62.4788 25.736 62.1468 25.484 61.8908 25.172C61.6348 24.852 61.4428 24.496 61.3148 24.104C61.1948 23.712 61.1348 23.312 61.1348 22.904V22.688C61.1348 22.272 61.1948 21.868 61.3148 21.476C61.4428 21.084 61.6348 20.732 61.8908 20.42C62.1468 20.1 62.4708 19.848 62.8628 19.664C63.2628 19.472 63.7308 19.376 64.2668 19.376C64.9628 19.376 65.5348 19.528 65.9828 19.832C66.4388 20.128 66.7748 20.512 66.9908 20.984C67.2148 21.456 67.3268 21.96 67.3268 22.496V23.012H62.2388C62.2788 23.644 62.4668 24.168 62.8028 24.584C63.1388 25 63.6508 25.208 64.3388 25.208C64.8428 25.208 65.2508 25.096 65.5628 24.872C65.8828 24.648 66.0748 24.388 66.1388 24.092H67.2188C67.0828 24.756 66.7588 25.276 66.2468 25.652C65.7348 26.028 65.0988 26.216 64.3388 26.216ZM64.2668 20.384C63.6908 20.384 63.2388 20.548 62.9108 20.876C62.5828 21.196 62.3748 21.62 62.2868 22.148H66.1988C66.1268 21.604 65.9308 21.176 65.6108 20.864C65.2908 20.544 64.8428 20.384 64.2668 20.384ZM68.9624 28.4V19.592H69.8744V21.164C70.0904 20.548 70.4264 20.096 70.8824 19.808C71.3384 19.52 71.8504 19.376 72.4184 19.376C73.0424 19.376 73.5824 19.528 74.0384 19.832C74.5024 20.136 74.8624 20.54 75.1184 21.044C75.3744 21.54 75.5024 22.088 75.5024 22.688V22.904C75.5024 23.504 75.3704 24.056 75.1064 24.56C74.8424 25.056 74.4744 25.456 74.0024 25.76C73.5384 26.064 73.0024 26.216 72.3944 26.216C71.9544 26.216 71.5304 26.124 71.1224 25.94C70.7144 25.756 70.3784 25.456 70.1144 25.04V28.4H68.9624ZM72.2144 25.208C72.6464 25.208 73.0224 25.108 73.3424 24.908C73.6624 24.7 73.9104 24.416 74.0864 24.056C74.2624 23.688 74.3504 23.268 74.3504 22.796C74.3504 22.316 74.2624 21.896 74.0864 21.536C73.9104 21.176 73.6624 20.896 73.3424 20.696C73.0224 20.488 72.6464 20.384 72.2144 20.384C71.8304 20.384 71.4744 20.472 71.1464 20.648C70.8184 20.816 70.5544 21.064 70.3544 21.392C70.1624 21.712 70.0664 22.1 70.0664 22.556V23.108C70.0664 23.548 70.1664 23.924 70.3664 24.236C70.5664 24.548 70.8304 24.788 71.1584 24.956C71.4864 25.124 71.8384 25.208 72.2144 25.208ZM80.1878 26.216C79.6278 26.216 79.1358 26.12 78.7118 25.928C78.2878 25.736 77.9278 25.484 77.6318 25.172C77.3438 24.852 77.1238 24.496 76.9718 24.104C76.8278 23.712 76.7558 23.312 76.7558 22.904V22.688C76.7558 22.28 76.8318 21.88 76.9838 21.488C77.1358 21.088 77.3598 20.732 77.6558 20.42C77.9518 20.1 78.3118 19.848 78.7358 19.664C79.1598 19.472 79.6438 19.376 80.1878 19.376C80.7318 19.376 81.2158 19.472 81.6398 19.664C82.0638 19.848 82.4238 20.1 82.7198 20.42C83.0158 20.732 83.2398 21.088 83.3918 21.488C83.5438 21.88 83.6198 22.28 83.6198 22.688V22.904C83.6198 23.312 83.5438 23.712 83.3918 24.104C83.2478 24.496 83.0278 24.852 82.7318 25.172C82.4438 25.484 82.0878 25.736 81.6638 25.928C81.2398 26.12 80.7478 26.216 80.1878 26.216ZM80.1878 25.184C80.6678 25.184 81.0758 25.08 81.4118 24.872C81.7558 24.656 82.0158 24.368 82.1918 24.008C82.3758 23.648 82.4678 23.244 82.4678 22.796C82.4678 22.34 82.3758 21.932 82.1918 21.572C82.0078 21.212 81.7438 20.928 81.3998 20.72C81.0638 20.512 80.6598 20.408 80.1878 20.408C79.7238 20.408 79.3198 20.512 78.9758 20.72C78.6318 20.928 78.3678 21.212 78.1838 21.572C77.9998 21.932 77.9078 22.34 77.9078 22.796C77.9078 23.244 77.9958 23.648 78.1718 24.008C78.3558 24.368 78.6158 24.656 78.9518 24.872C79.2958 25.08 79.7078 25.184 80.1878 25.184ZM87.4452 26.192C86.6052 26.192 85.9532 26.012 85.4892 25.652C85.0332 25.292 84.7972 24.8 84.7812 24.176H85.8612C85.8772 24.424 86.0012 24.66 86.2332 24.884C86.4732 25.1 86.8772 25.208 87.4452 25.208C87.9572 25.208 88.3492 25.108 88.6212 24.908C88.8932 24.7 89.0292 24.448 89.0292 24.152C89.0292 23.888 88.9292 23.684 88.7292 23.54C88.5292 23.388 88.2052 23.288 87.7572 23.24L87.0612 23.168C86.4532 23.104 85.9572 22.924 85.5732 22.628C85.1892 22.324 84.9972 21.9 84.9972 21.356C84.9972 20.74 85.2252 20.26 85.6812 19.916C86.1372 19.572 86.7252 19.4 87.4452 19.4C88.1652 19.4 88.7492 19.56 89.1972 19.88C89.6452 20.2 89.8772 20.676 89.8932 21.308H88.8132C88.8052 21.052 88.6852 20.836 88.4532 20.66C88.2292 20.476 87.8932 20.384 87.4452 20.384C86.9972 20.384 86.6572 20.476 86.4252 20.66C86.1932 20.844 86.0772 21.076 86.0772 21.356C86.0772 21.596 86.1572 21.788 86.3172 21.932C86.4852 22.076 86.7572 22.168 87.1332 22.208L87.8292 22.28C88.5172 22.352 89.0692 22.544 89.4852 22.856C89.9012 23.16 90.1092 23.592 90.1092 24.152C90.1092 24.552 89.9932 24.908 89.7612 25.22C89.5372 25.524 89.2252 25.764 88.8252 25.94C88.4252 26.108 87.9652 26.192 87.4452 26.192ZM92.4147 18.56C92.1587 18.56 91.9667 18.492 91.8387 18.356C91.7187 18.22 91.6587 18.048 91.6587 17.84C91.6587 17.632 91.7187 17.46 91.8387 17.324C91.9667 17.188 92.1587 17.12 92.4147 17.12C92.6707 17.12 92.8587 17.188 92.9787 17.324C93.1067 17.46 93.1707 17.632 93.1707 17.84C93.1707 18.048 93.1067 18.22 92.9787 18.356C92.8587 18.492 92.6707 18.56 92.4147 18.56ZM92.0907 26V20.504H91.1067V19.592H93.2427V26H92.0907ZM97.9661 26.072C97.4861 26.072 97.0701 26.004 96.7181 25.868C96.3741 25.732 96.1061 25.5 95.9141 25.172C95.7301 24.836 95.6381 24.384 95.6381 23.816V20.456H94.5341V19.592H95.6381V17.648H96.7421V19.592H98.9501V20.456H96.7421V23.96C96.7421 24.304 96.8341 24.572 97.0181 24.764C97.2101 24.948 97.4781 25.04 97.8221 25.04H98.9501V26.072H97.9661Z" fill="#0052FF"/>
</svg>
