<svg width="26" height="25" viewBox="0 0 26 25" fill="none" xmlns="http://www.w3.org/2000/svg">
<path d="M16.3234 17.7068H10.1159M16.3234 17.7068V18.7414C16.3234 19.7055 16.3234 20.1876 16.1659 20.5678C15.9559 21.0748 15.5531 21.4776 15.0461 21.6876C14.6658 21.8451 14.1838 21.8451 13.2197 21.8451C12.2556 21.8451 11.7735 21.8451 11.3933 21.6876C10.8863 21.4776 10.4834 21.0748 10.2734 20.5678C10.1159 20.1876 10.1159 19.7055 10.1159 18.7414V17.7068M16.3234 17.7068V16.6647C16.3234 16.3333 16.4276 16.0102 16.6213 15.7413L18.3805 13.2978C21.4093 9.09124 18.4032 3.22266 13.2197 3.22266C8.03615 3.22266 5.03007 9.09124 8.05883 13.2978L9.81809 15.7413C10.0117 16.0102 10.1159 16.3333 10.1159 16.6647V17.7068M11.6678 12.0166L13.2197 14.6031L14.7715 12.0166" stroke="#FF006E" stroke-width="1.55187" stroke-linecap="round" stroke-linejoin="round"/>
</svg>
