<svg width="24" height="25" viewBox="0 0 24 25" fill="none" xmlns="http://www.w3.org/2000/svg">
<path fill-rule="evenodd" clip-rule="evenodd" d="M11.7782 14.692C11.1092 14.692 10.4422 14.471 9.8842 14.029L5.3992 10.413C5.0762 10.153 5.0262 9.68004 5.2852 9.35804C5.5462 9.03704 6.0182 8.98604 6.3402 9.24504L10.8212 12.857C11.3842 13.303 12.1772 13.303 12.7442 12.853L17.1802 9.24704C17.5022 8.98404 17.9742 9.03404 18.2362 9.35604C18.4972 9.67704 18.4482 10.149 18.1272 10.411L13.6832 14.023C13.1212 14.469 12.4492 14.692 11.7782 14.692Z" fill="#718096"/>
<mask id="mask0_13131_18966" style="mask-type:luminance" maskUnits="userSpaceOnUse" x="1" y="3" width="22" height="20">
<path fill-rule="evenodd" clip-rule="evenodd" d="M1.00098 3.22852H22.5022V22.7298H1.00098V3.22852Z" fill="white"/>
</mask>
<g mask="url(#mask0_13131_18966)">
<path fill-rule="evenodd" clip-rule="evenodd" d="M6.84025 21.2296H16.6609C16.6629 21.2276 16.6709 21.2296 16.6769 21.2296C17.818 21.2296 18.83 20.8215 19.6061 20.0465C20.5071 19.1494 21.0022 17.8604 21.0022 16.4173V9.54882C21.0022 6.75565 19.176 4.72852 16.6609 4.72852H6.84225C4.32709 4.72852 2.50098 6.75565 2.50098 9.54882V16.4173C2.50098 17.8604 2.99701 19.1494 3.89707 20.0465C4.67312 20.8215 5.68618 21.2296 6.82625 21.2296H6.84025ZM6.82335 22.7298C5.28025 22.7298 3.90216 22.1697 2.83809 21.1097C1.65302 19.9276 1.00098 18.2615 1.00098 16.4174V9.54892C1.00098 5.94569 3.51214 3.22852 6.84235 3.22852H16.661C19.9912 3.22852 22.5023 5.94569 22.5023 9.54892V16.4174C22.5023 18.2615 21.8503 19.9276 20.6652 21.1097C19.6022 22.1687 18.2231 22.7298 16.677 22.7298H16.661H6.84235H6.82335Z" fill="#718096"/>
</g>
</svg>
