<svg width="19" height="19" viewBox="0 0 19 19" fill="none" xmlns="http://www.w3.org/2000/svg">
<rect x="0.117676" y="0.132812" width="18.1284" height="18.1284" rx="9.06421" fill="#F0F1F2"/>
<path d="M9.18164 5.68359C11.005 5.68359 12.3945 7.02921 13.1885 8.05469C13.4741 8.42361 13.6177 8.60898 13.6699 9.00293C13.6822 9.09599 13.6822 9.29699 13.6699 9.38965C13.6177 9.78354 13.4741 9.96801 13.1885 10.3369C12.3945 11.3624 11.0051 12.708 9.18164 12.708C7.35813 12.7079 5.96875 11.3624 5.1748 10.3369C4.88922 9.96804 4.74656 9.78348 4.69434 9.38965C4.68205 9.29696 4.68209 9.09595 4.69434 9.00293C4.74655 8.60898 4.88918 8.42361 5.1748 8.05469C5.96878 7.02922 7.35827 5.68367 9.18164 5.68359ZM9.18164 7.60938C8.30566 7.60946 7.5957 8.32029 7.5957 9.19629C7.59587 10.0721 8.30576 10.7821 9.18164 10.7822C10.0576 10.7822 10.7674 10.0722 10.7676 9.19629C10.7676 8.32023 10.0577 7.60938 9.18164 7.60938Z" fill="#0052FF" fill-opacity="0.33"/>
<path d="M9.18201 6.02344C10.651 6.02344 11.9399 7.08954 12.7638 7.98572C13.1295 8.38353 13.3124 8.58244 13.3741 8.9945C13.3892 9.09537 13.3892 9.29645 13.3741 9.39732C13.3124 9.80938 13.1295 10.0083 12.7638 10.4061C11.9399 11.3023 10.651 12.3684 9.18201 12.3684C7.71299 12.3684 6.42414 11.3023 5.60023 10.4061C5.23449 10.0083 5.05162 9.80938 4.9899 9.39732C4.97479 9.29645 4.97479 9.09537 4.9899 8.9945C5.05162 8.58244 5.23449 8.38353 5.60023 7.98572C6.42414 7.08954 7.71299 6.02344 9.18201 6.02344Z" stroke="#0052FF" stroke-opacity="0.33" stroke-width="0.679816" stroke-linejoin="round"/>
</svg>
