<svg width="25" height="24" viewBox="0 0 25 24" fill="none" xmlns="http://www.w3.org/2000/svg">
<path fill-rule="evenodd" clip-rule="evenodd" d="M12.3207 9.5C10.9888 9.5 9.90869 10.5794 9.90869 11.912C9.90869 13.2438 10.9889 14.324 12.3207 14.324C13.6525 14.324 14.7327 13.2438 14.7327 11.912C14.7327 10.5794 13.6526 9.5 12.3207 9.5ZM8.40869 11.912C8.40869 9.75063 10.1606 8 12.3207 8C14.4808 8 16.2327 9.75063 16.2327 11.912C16.2327 14.0722 14.4809 15.824 12.3207 15.824C10.1605 15.824 8.40869 14.0722 8.40869 11.912Z" fill="#718096"/>
<path fill-rule="evenodd" clip-rule="evenodd" d="M5.38422 6.59826C7.17862 5.08118 9.65943 4 12.4107 4C15.1613 4 17.6421 5.08034 19.4367 6.59706C21.2117 8.09726 22.4127 10.114 22.4127 12.052C22.4127 13.99 21.2117 16.0067 19.4367 17.5069C17.6421 19.0237 15.1613 20.104 12.4107 20.104C9.65943 20.104 7.17862 19.0228 5.38422 17.5057C3.60943 16.0052 2.40869 13.9885 2.40869 12.052C2.40869 10.1155 3.60943 8.09876 5.38422 6.59826ZM6.35266 7.74374C4.77895 9.07424 3.90869 10.7085 3.90869 12.052C3.90869 13.3955 4.77895 15.0298 6.35266 16.3603C7.90676 17.6742 10.052 18.604 12.4107 18.604C14.7691 18.604 16.9143 17.6748 18.4684 16.3613C20.0422 15.0313 20.9127 13.397 20.9127 12.052C20.9127 10.707 20.0422 9.07274 18.4684 7.74269C16.9143 6.42916 14.7691 5.5 12.4107 5.5C10.052 5.5 7.90676 6.42982 6.35266 7.74374Z" fill="#718096"/>
</svg>
