<svg width="26" height="25" viewBox="0 0 26 25" fill="none" xmlns="http://www.w3.org/2000/svg">
<path d="M10.6496 5.80911V8.76759C10.6496 8.85857 10.605 8.94376 10.5302 8.99554L4.64767 13.068C4.19495 13.3815 3.9248 13.897 3.9248 14.4477C3.9248 15.5625 4.99185 16.3674 6.06377 16.0611L10.822 14.7016C10.9948 14.6522 11.1669 14.782 11.1669 14.9617V17.3211C11.1669 17.49 11.1669 17.5745 11.1416 17.6524C11.1332 17.6782 11.1228 17.7032 11.1105 17.7274C11.0733 17.8004 11.0136 17.8601 10.8942 17.9795L10.8942 17.9795L9.37044 19.5033C9.25101 19.6227 9.19129 19.6824 9.1541 19.7554C9.14179 19.7795 9.13141 19.8046 9.12303 19.8304C9.09772 19.9083 9.09772 19.9928 9.09772 20.1617V20.6824C9.09772 21.3367 9.09772 21.6638 9.27429 21.8183C9.32975 21.8669 9.39495 21.903 9.46552 21.9243C9.69018 21.9921 9.96756 21.8188 10.5223 21.472L12.7425 20.0844L12.7426 20.0844C12.9552 19.9515 13.0616 19.885 13.1784 19.8719C13.2167 19.8676 13.2554 19.8676 13.2937 19.8719C13.4105 19.885 13.5169 19.9515 13.7295 20.0844L13.7295 20.0844L15.9498 21.472C16.5045 21.8188 16.7819 21.9921 17.0066 21.9243C17.0771 21.903 17.1423 21.8669 17.1978 21.8183C17.3744 21.6638 17.3744 21.3367 17.3744 20.6824V20.1617C17.3744 19.9928 17.3744 19.9083 17.3491 19.8304C17.3407 19.8046 17.3303 19.7795 17.318 19.7554C17.2808 19.6824 17.2211 19.6227 17.1017 19.5033L15.5779 17.9795C15.4585 17.8601 15.3988 17.8004 15.3616 17.7274C15.3493 17.7032 15.3389 17.6782 15.3305 17.6524C15.3052 17.5745 15.3052 17.49 15.3052 17.3211V14.9617C15.3052 14.782 15.4772 14.6522 15.6501 14.7016L20.4083 16.0611C21.4802 16.3674 22.5473 15.5625 22.5473 14.4477C22.5473 13.897 22.2771 13.3815 21.8244 13.068L15.9419 8.99554C15.8671 8.94376 15.8225 8.85857 15.8225 8.76759V5.80911C15.8225 4.38065 14.6645 3.22266 13.236 3.22266C11.8076 3.22266 10.6496 4.38065 10.6496 5.80911Z" stroke="#31C8EC" stroke-width="1.55187" stroke-linejoin="round"/>
</svg>
