<svg width="19" height="14" viewBox="0 0 19 14" fill="none" xmlns="http://www.w3.org/2000/svg">
<path d="M18.5 8.59961C18.5 10.8494 18.4997 11.9751 17.9268 12.7637C17.7419 13.0181 17.5181 13.2419 17.2637 13.4268C16.4751 13.9997 15.3494 14 13.0996 14H7.25V7.81055L8.46973 9.03027C8.76262 9.32317 9.23738 9.32317 9.53027 9.03027C9.82316 8.73738 9.82317 8.26262 9.53027 7.96973L8.31055 6.75H18.5V8.59961ZM0.5 6.75H4.68945L3.46973 7.96973C3.17683 8.26262 3.17683 8.73738 3.46973 9.03027C3.76262 9.32317 4.23738 9.32317 4.53027 9.03027L5.75 7.81055V13.999C3.59977 13.9987 2.5072 13.9868 1.73633 13.4268C1.4819 13.2419 1.25815 13.0181 1.07324 12.7637C0.500293 11.9751 0.5 10.8494 0.5 8.59961V6.75ZM13.0996 0C15.3494 0 16.4751 0.000293136 17.2637 0.573242C17.5181 0.758148 17.7418 0.981903 17.9268 1.23633C18.4868 2.0072 18.4987 3.09977 18.499 5.25H10.1191C10.2023 5.01516 10.25 4.76331 10.25 4.5C10.25 3.25736 9.24264 2.25 8 2.25C7.73669 2.25 7.48484 2.29775 7.25 2.38086V0H13.0996ZM5.75 2.38086C5.51516 2.29775 5.26331 2.25 5 2.25C3.75736 2.25 2.75 3.25736 2.75 4.5C2.75 4.76331 2.79775 5.01516 2.88086 5.25H0.500977C0.501259 3.09977 0.51317 2.0072 1.07324 1.23633C1.25815 0.981903 1.4819 0.758148 1.73633 0.573242C2.5072 0.0131702 3.59977 0.000282907 5.75 0V2.38086ZM5 3.75C5.41421 3.75 5.75 4.08579 5.75 4.5C5.75 4.91421 5.41421 5.25 5 5.25C4.58579 5.25 4.25 4.91421 4.25 4.5C4.25 4.08579 4.58579 3.75 5 3.75ZM8 3.75C8.41421 3.75 8.75 4.08579 8.75 4.5C8.75 4.91421 8.41421 5.25 8 5.25C7.58579 5.25 7.25 4.91421 7.25 4.5C7.25 4.08579 7.58579 3.75 8 3.75Z" fill="#FAFAFA"/>
</svg>
