<svg width="26" height="26" viewBox="0 0 26 26" fill="none" xmlns="http://www.w3.org/2000/svg">
<path d="M3.91699 11.6606V14.3505C3.91699 16.6782 3.91699 17.842 4.50976 18.6579C4.70119 18.9214 4.93291 19.1531 5.1964 19.3445C6.01227 19.9373 7.17609 19.9373 9.50374 19.9373H10.1245M3.91699 11.6606V11.0399C3.91699 8.71223 3.91699 7.5484 4.50976 6.73254C4.70119 6.46904 4.93291 6.23733 5.1964 6.04589C6.01227 5.45312 7.17609 5.45312 9.50374 5.45312H10.1245M3.91699 11.6606H10.1245M22.5395 11.6606V11.0399C22.5395 8.71223 22.5395 7.5484 21.9467 6.73254C21.7553 6.46904 21.5236 6.23733 21.2601 6.04589C20.4442 5.45312 19.2804 5.45312 16.9527 5.45312H10.1245M22.5395 11.6606V14.3505C22.5395 16.6782 22.5395 17.842 21.9467 18.6579C21.7553 18.9214 21.5236 19.1531 21.2601 19.3445C20.4442 19.9373 19.2804 19.9373 16.9527 19.9373H10.1245M22.5395 11.6606H10.1245M10.1245 19.9373V11.6606M10.1245 5.45312V11.6606M10.1245 11.6606L7.53803 14.2471M10.1245 11.6606L12.7109 14.2471M10.1245 10.1087C10.1245 10.9658 9.42969 11.6606 8.57261 11.6606C7.71554 11.6606 7.02074 10.9658 7.02074 10.1087C7.02074 9.25167 7.71554 8.55687 8.57261 8.55687C9.42969 8.55687 10.1245 9.25167 10.1245 10.1087ZM10.1245 10.1087C10.1245 10.9658 10.8193 11.6606 11.6764 11.6606C12.5334 11.6606 13.2282 10.9658 13.2282 10.1087C13.2282 9.25167 12.5334 8.55687 11.6764 8.55687C10.8193 8.55687 10.1245 9.25167 10.1245 10.1087Z" stroke="#8038E8" stroke-width="1.55187" stroke-linecap="round" stroke-linejoin="round"/>
</svg>
