<svg width="56" height="20" viewBox="0 0 56 20" fill="none" xmlns="http://www.w3.org/2000/svg">
<path d="M2.35453 14V4.85016H4.66972L7.53944 12.3503H7.60876L10.4646 4.85016H12.6828V14H11.241L11.338 6.37513H11.2132L8.19102 14H6.80468L3.81019 6.37513H3.68542L3.78246 14H2.35453ZM18.0227 14.1802C17.3203 14.1802 16.701 14.0323 16.165 13.7366C15.6289 13.4408 15.2084 13.0111 14.9034 12.4473C14.6076 11.8835 14.4598 11.1904 14.4598 10.3678C14.4598 9.52674 14.6169 8.82895 14.9311 8.27442C15.2454 7.71988 15.6659 7.30398 16.1927 7.02671C16.7287 6.74944 17.3295 6.61081 17.9949 6.61081C18.6789 6.61081 19.2889 6.75406 19.8249 7.04057C20.361 7.32708 20.7815 7.75223 21.0865 8.31601C21.4007 8.87978 21.5578 9.5822 21.5578 10.4232C21.5578 11.255 21.4007 11.9528 21.0865 12.5166C20.7815 13.0712 20.361 13.4871 19.8249 13.7643C19.2889 14.0416 18.6881 14.1802 18.0227 14.1802ZM18.0643 12.988C18.4802 12.988 18.836 12.8909 19.1317 12.6968C19.4275 12.5028 19.6539 12.2162 19.811 11.8373C19.9682 11.4584 20.0467 11.0055 20.0467 10.4787C20.0467 9.9334 19.9635 9.46667 19.7972 9.07849C19.6308 8.68107 19.3905 8.37608 19.0763 8.16351C18.7713 7.95094 18.4016 7.84465 17.9672 7.84465C17.5606 7.84465 17.2047 7.94169 16.8997 8.13578C16.604 8.32063 16.3775 8.60252 16.2204 8.98145C16.0633 9.35114 15.9847 9.80401 15.9847 10.3401C15.9847 11.1811 16.1696 11.8327 16.5393 12.2948C16.9182 12.7569 17.4265 12.988 18.0643 12.988ZM23.2286 14V10.243V6.79103H24.5317L24.4624 9.28644H24.712C24.7859 8.72267 24.9107 8.24207 25.0863 7.84465C25.2619 7.44723 25.5022 7.14686 25.8072 6.94353C26.1122 6.73096 26.4911 6.62467 26.944 6.62467C27.0364 6.62467 27.1381 6.62929 27.249 6.63853C27.3599 6.64778 27.4847 6.6755 27.6233 6.72171L27.554 8.30214C27.4153 8.24669 27.2721 8.20972 27.1242 8.19123C26.9763 8.16351 26.8423 8.14964 26.7222 8.14964C26.3525 8.14964 26.0382 8.25593 25.7795 8.4685C25.5207 8.67183 25.3035 8.95834 25.1279 9.32803C24.9615 9.68848 24.8321 10.1044 24.7397 10.5757V14H23.2286ZM32.0082 14.1802C31.4352 14.1802 30.9269 14.097 30.4833 13.9307C30.0396 13.7551 29.6653 13.5102 29.3603 13.1959C29.0553 12.8724 28.8243 12.4889 28.6672 12.0453C28.51 11.5924 28.4315 11.0841 28.4315 10.5203C28.4315 9.95651 28.51 9.43894 28.6672 8.96759C28.8243 8.48699 29.0461 8.07109 29.3326 7.71988C29.6284 7.36867 29.9888 7.09603 30.4139 6.90194C30.8483 6.70785 31.3382 6.61081 31.8835 6.61081C32.3918 6.61081 32.8447 6.69399 33.2421 6.86035C33.6487 7.02671 33.9907 7.28087 34.268 7.62284C34.5452 7.95556 34.7532 8.37608 34.8918 8.8844C35.0305 9.38349 35.0813 9.97037 35.0443 10.6451L29.4019 10.6866V9.74394L34.1571 9.70235L33.6303 10.2846C33.6857 9.73007 33.6395 9.27258 33.4916 8.91213C33.3437 8.55168 33.1312 8.28366 32.8539 8.10805C32.5766 7.93245 32.2578 7.84465 31.8973 7.84465C31.4907 7.84465 31.1348 7.95094 30.8298 8.16351C30.5341 8.36684 30.303 8.66721 30.1367 9.06463C29.9703 9.46205 29.8871 9.93802 29.8871 10.4926C29.8871 11.3244 30.072 11.9528 30.4417 12.378C30.8114 12.7939 31.3382 13.0018 32.0221 13.0018C32.3086 13.0018 32.5535 12.9695 32.7569 12.9048C32.9602 12.8309 33.1312 12.7384 33.2698 12.6275C33.4084 12.5074 33.5193 12.3687 33.6025 12.2116C33.695 12.0453 33.7689 11.8743 33.8243 11.6987L35.1414 12.0037C35.0582 12.3456 34.9288 12.6506 34.7532 12.9187C34.5868 13.1774 34.3743 13.4039 34.1155 13.598C33.8567 13.7828 33.5517 13.9261 33.2005 14.0277C32.8585 14.1294 32.4611 14.1802 32.0082 14.1802Z" fill="#0052FF"/>
<path d="M45.4365 15.2602L49.7665 10.9303C50.0105 10.6827 50.1474 10.349 50.1474 10.0012C50.1474 9.65345 50.0105 9.3197 49.7665 9.07206L45.4365 4.74219" stroke="#0052FF" stroke-width="1.4791" stroke-linecap="round" stroke-linejoin="round"/>
</svg>
