<svg width="25" height="25" viewBox="0 0 25 25" fill="none" xmlns="http://www.w3.org/2000/svg">
<path d="M10.095 18.2547C9.72956 19.2385 10.4573 20.2852 11.5069 20.2852H18.1305C18.678 20.2852 18.9517 20.2852 19.1553 20.2513C20.5426 20.0207 21.4668 18.6916 21.1999 17.3108C21.1608 17.1081 21.0655 16.8515 20.8748 16.3383C20.7162 15.911 20.6368 15.6974 20.5446 15.511C19.9359 14.2811 18.7393 13.4491 17.3744 13.3067C17.1675 13.2852 16.9396 13.2852 16.4839 13.2852H14.6983C14.4853 13.2852 14.3788 13.2852 14.273 13.2908C14.0065 13.3049 13.7422 13.3456 13.4838 13.4124C13.3812 13.4389 13.2797 13.471 13.0765 13.5352M8.4209 8.78516C7.31633 8.78516 6.4209 7.88973 6.4209 6.78516C6.4209 5.68059 7.31633 4.78516 8.4209 4.78516C9.52547 4.78516 10.4209 5.68059 10.4209 6.78516C10.4209 7.88973 9.52547 8.78516 8.4209 8.78516ZM15.9209 10.7852C14.8163 10.7852 13.9209 9.88973 13.9209 8.78516C13.9209 7.68059 14.8163 6.78516 15.9209 6.78516C17.0255 6.78516 17.9209 7.68059 17.9209 8.78516C17.9209 9.88973 17.0255 10.7852 15.9209 10.7852ZM6.05114 18.2852H10.6305C11.178 18.2852 11.4517 18.2852 11.6553 18.2513C13.0426 18.0207 13.9668 16.6916 13.6999 15.3108C13.6608 15.1081 13.5655 14.8515 13.3748 14.3383C13.2162 13.911 13.1368 13.6974 13.0446 13.511C12.4359 12.2811 11.2393 11.4491 9.8744 11.3067C9.66752 11.2852 9.43965 11.2852 8.98389 11.2852H7.69775C7.24199 11.2852 7.01412 11.2852 6.80724 11.3067C5.44237 11.4491 4.24574 12.2811 3.63709 13.511C3.54483 13.6974 3.46549 13.911 3.3068 14.3383C3.11617 14.8515 3.02085 15.1081 2.98169 15.3108C2.71483 16.6916 3.63901 18.0207 5.02632 18.2513C5.2299 18.2852 5.50365 18.2852 6.05114 18.2852Z" stroke="#718096" stroke-width="1.5" stroke-linejoin="round"/>
</svg>
