<svg width="78" height="34" viewBox="0 0 78 34" fill="none" xmlns="http://www.w3.org/2000/svg">
<rect x="0.229004" width="77.1885" height="33.9997" rx="16.9998" fill="white"/>
<rect x="0.688459" y="0.459455" width="76.2695" height="33.0808" rx="16.5404" stroke="#0052FF" stroke-opacity="0.33" stroke-width="0.91891"/>
<path d="M18.4023 7.58203C23.7871 7.58203 28.1523 11.9473 28.1523 17.332C28.1523 22.7168 23.7871 27.082 18.4023 27.082C13.0176 27.082 8.65234 22.7168 8.65234 17.332C8.65234 11.9473 13.0176 7.58203 18.4023 7.58203ZM14.4023 23.5322H16.7031C17.1994 23.5321 17.6016 23.1292 17.6016 22.6328V20.333L14.4023 23.5322ZM15.5264 12.332C14.9059 12.332 14.4023 12.8354 14.4023 13.457V16.332L19.8877 14.8477L14.4023 20.332H18.4023C19.5069 20.332 20.5072 19.8842 21.2305 19.1611C21.9537 18.4379 22.4022 17.4372 22.4023 16.333C22.4027 15.2279 21.9541 14.2276 21.2305 13.5039C20.5072 12.7806 19.5067 12.332 18.4023 12.332H15.5264Z" fill="#0052FF"/>
<path d="M33.2745 19.832V13.5633H34.6485L37.8344 19.0763H37.9374V13.5633H38.7446V19.832H37.3535L34.1676 14.319H34.0646V19.832H33.2745ZM43.3615 19.9866C42.7146 19.9866 42.1478 19.8463 41.6612 19.5658C41.1803 19.2853 40.8053 18.8989 40.5363 18.4065C40.2672 17.9142 40.1326 17.356 40.1326 16.732V16.5431C40.1326 16.1423 40.2013 15.7559 40.3387 15.3838C40.4819 15.0059 40.6851 14.6682 40.9484 14.3705C41.2175 14.0671 41.5438 13.8295 41.9274 13.6577C42.311 13.4803 42.7432 13.3915 43.2241 13.3915C43.7451 13.3915 44.2088 13.4917 44.6152 13.6921C45.0217 13.8867 45.348 14.1615 45.5942 14.5165C45.8404 14.8657 45.9835 15.2722 46.0236 15.7359H45.1648C45.1248 15.3867 45.0103 15.0975 44.8213 14.8686C44.6324 14.6338 44.3977 14.4592 44.1172 14.3447C43.8424 14.2245 43.5447 14.1644 43.2241 14.1644C42.789 14.1644 42.4026 14.2674 42.0648 14.4735C41.727 14.6796 41.4637 14.9687 41.2748 15.3409C41.0858 15.7072 40.9914 16.1423 40.9914 16.6461C40.9914 17.2186 41.0916 17.6966 41.2919 18.0802C41.498 18.4638 41.7786 18.7529 42.1335 18.9475C42.4942 19.1365 42.9035 19.2309 43.3615 19.2309C43.7393 19.2309 44.0828 19.1708 44.392 19.0506C44.7011 18.9304 44.9616 18.7672 45.1734 18.5611V17.4963H43.1382V16.7921H46.4959V17.4963H45.9634V18.8187C45.6829 19.1851 45.3223 19.4714 44.8814 19.6775C44.4406 19.8836 43.934 19.9866 43.3615 19.9866ZM47.6986 19.832V13.5289H49.6135C50.3807 13.5289 50.9617 13.7093 51.3568 14.0699C51.7575 14.4249 51.9579 14.9086 51.9579 15.5212V15.6586C51.9579 16.2654 51.7575 16.7492 51.3568 17.1098C50.9617 17.4705 50.3807 17.6508 49.6135 17.6508H48.5401V19.832H47.6986ZM49.7681 14.2674H48.5401V16.9123H49.7681C50.2089 16.9123 50.541 16.7864 50.7642 16.5345C50.9875 16.2769 51.0991 15.962 51.0991 15.5899C51.0991 15.212 50.9875 14.8972 50.7642 14.6453C50.541 14.3934 50.2089 14.2674 49.7681 14.2674Z" fill="black"/>
<path d="M62.0505 18.584C61.9629 18.584 61.8752 18.5507 61.8086 18.4837L59.9836 16.6586C59.8499 16.5249 59.8499 16.3082 59.9836 16.1745C60.1173 16.0408 60.334 16.0408 60.4677 16.1745L62.0509 17.7577L63.6341 16.1745C63.7678 16.0408 63.9846 16.0408 64.1182 16.1745C64.2519 16.3082 64.2519 16.5249 64.1182 16.6586L62.2932 18.4837C62.2257 18.5507 62.1381 18.584 62.0505 18.584Z" fill="black"/>
</svg>
