<svg width="338" height="375" viewBox="0 0 338 375" fill="none" xmlns="http://www.w3.org/2000/svg">
<path d="M57.4093 174.32L56.6312 177.269C55.4817 181.631 57.7592 187.007 61.6859 189.228L95.8344 208.469L93.0215 185.415L57.4093 174.327V174.32Z" fill="#31C8EC" stroke="#181818" stroke-miterlimit="10"/>
<path d="M382.417 343.135L355.672 318.268C350.453 313.42 340.365 309.536 333.239 309.636L310.136 309.972C301.661 310.093 288.203 307.844 280.228 304.96L200.458 276.151L190.184 235.52L140.978 227.245L101.718 211.224L104.188 191.819L121.03 189.313L265.542 166.852L274.559 165.453L283.17 164.117L250.599 156.378C241.696 154.265 235.506 145.198 235.456 136.045L235.435 132.346C235.427 130.633 236.163 128.998 237.455 127.87C238.747 126.742 240.468 126.235 242.167 126.478L260.002 129.019C268.726 130.262 278.208 124.65 289.681 126.835L344.398 137.237C349.303 138.172 356.264 141.642 359.834 145.126L407.862 192.076C411.189 195.332 415.23 201.564 416.836 205.934L421.299 218.071C423.64 224.447 430.223 232.686 435.928 236.377L462.694 253.712C445.145 255.604 407.841 284.905 393.319 303.039C376.569 323.958 382.417 343.135 382.417 343.135Z" fill="#31C8EC" stroke="#181818" stroke-miterlimit="10"/>
<path d="M30.7291 144.935L102.596 118.776C110.092 116.049 122.358 116.049 129.855 118.776L329.727 191.521H359.456V204.279C359.456 206.078 357.585 207.878 353.83 209.241L257.86 244.175C250.363 246.902 238.098 246.902 230.601 244.175L6.62598 162.656C2.87771 161.292 1 159.493 1 157.694V144.935H30.7291Z" fill="#0052FF" stroke="#181818" stroke-linecap="round" stroke-linejoin="round"/>
<path d="M54.44 176.771C57.1959 177.77 57.817 177.342 57.817 174.408C57.817 173.437 57.0745 172.373 56.1606 172.044L42.1671 166.947C39.4112 165.947 38.79 166.376 38.79 169.31C38.79 170.281 39.5326 171.345 40.4464 171.673L54.44 176.771Z" stroke="#181818" stroke-linecap="round" stroke-linejoin="round"/>
<path d="M75.5513 184.45C78.3072 185.45 78.9283 185.022 78.9283 182.087C78.9283 181.116 78.1857 180.053 77.2719 179.724L63.2784 174.626C60.5225 173.627 59.9014 174.055 59.9014 176.99C59.9014 177.961 60.6439 179.024 61.5578 179.353L75.5513 184.45Z" stroke="#181818" stroke-linecap="round" stroke-linejoin="round"/>
<path d="M356.9 191.527V207.769C356.072 208.298 355.066 208.797 353.83 209.247L257.86 244.181C255.319 245.102 252.234 245.709 248.972 246.009V176.477H288.353L329.734 191.534H356.907L356.9 191.527Z" fill="#1455FE"/>
<path d="M245.08 246.208V233.457" stroke="#1455FE" stroke-miterlimit="10"/>
<path d="M353.83 196.482C361.326 193.755 361.326 189.285 353.83 186.558L129.862 105.045C122.365 102.318 110.1 102.318 102.603 105.045L6.63314 139.979C-0.863392 142.707 -0.863392 147.176 6.63314 149.903L230.608 231.423C238.105 234.15 250.371 234.15 257.867 231.423L353.837 196.489L353.83 196.482Z" fill="#2269FF" fill-opacity="0.94" stroke="#181818" stroke-linecap="round" stroke-linejoin="round"/>
<path d="M56.5177 130.918C58.6627 130.918 60.4016 130.269 60.4016 129.469C60.4016 128.668 58.6627 128.02 56.5177 128.02C54.3727 128.02 52.6338 128.668 52.6338 129.469C52.6338 130.269 54.3727 130.918 56.5177 130.918Z" fill="#181818"/>
<path d="M72.9459 122.037C74.0311 121.644 75.8017 121.644 76.8798 122.037C77.965 122.429 77.965 123.072 76.8798 123.465L65.1423 127.72C64.0571 128.112 62.2865 128.112 61.2084 127.72C60.1232 127.327 60.1232 126.685 61.2084 126.292L72.9459 122.037Z" fill="#181818"/>
<path d="M142.392 145.76C141.128 143.605 138.485 141.496 134.768 139.951L125.084 135.926C122.996 135.058 120.488 135.149 119.482 136.131L114.827 140.677L135.695 146.005L108.351 147L121.817 152.597C125.535 154.143 129.628 154.834 133.234 154.703C136.839 154.572 139.968 153.617 141.755 151.872C143.546 150.125 143.656 147.917 142.392 145.76Z" fill="white"/>
<path d="M110.915 155.277C112.586 155.972 114.593 155.899 115.397 155.114L119.121 151.478L103.171 152.058L110.915 155.277Z" fill="white"/>
<path d="M142.162 163.464L153.314 152.574L158.48 154.722L147.328 165.611L142.162 163.464ZM149.865 162.257L152.017 160.156L156.144 161.871C156.942 162.203 157.705 162.415 158.435 162.507C159.164 162.599 159.824 162.575 160.418 162.435C161.012 162.295 161.49 162.047 161.853 161.692C162.237 161.318 162.411 160.929 162.372 160.527C162.336 160.125 162.101 159.732 161.67 159.348C161.237 158.965 160.624 158.608 159.826 158.276L155.699 156.56L157.851 154.459L161.727 156.071C163.68 156.883 165.197 157.732 166.282 158.618C167.365 159.504 167.993 160.383 168.163 161.256C168.332 162.128 168.014 162.959 167.206 163.748L166.964 163.985C166.176 164.754 165.117 165.267 163.791 165.525C162.464 165.782 160.946 165.773 159.236 165.498C157.525 165.223 155.695 164.68 153.742 163.868L149.866 162.256L149.865 162.257Z" fill="white"/>
<path d="M165.824 177.202C163.976 176.434 162.526 175.736 161.477 175.11C160.426 174.483 159.762 173.926 159.483 173.437C159.203 172.949 159.257 172.518 159.641 172.143C160.106 171.689 160.868 171.478 161.928 171.511C162.987 171.544 164.283 171.851 165.815 172.431L166.133 172.12C164.978 171.64 164.145 171.217 163.638 170.851C163.13 170.485 163.026 170.154 163.329 169.858C163.612 169.582 164.173 169.457 165.016 169.484C165.858 169.51 167.047 169.751 168.587 170.208L168.905 169.898C167.674 169.316 166.86 168.693 166.463 168.028C166.066 167.364 166.16 166.745 166.745 166.173C167.24 165.69 167.986 165.37 168.984 165.216C169.981 165.06 171.192 165.106 172.616 165.354C174.039 165.602 175.633 166.092 177.398 166.826L186.031 170.414L184.197 172.205L179.269 169.692L178.906 170.047C180.18 170.703 181.005 171.257 181.381 171.709C181.757 172.16 181.753 172.574 181.37 172.948C180.966 173.343 180.317 173.573 179.428 173.638C178.536 173.704 177.477 173.605 176.251 173.341C175.024 173.077 173.686 172.644 172.237 172.042C171.985 171.937 171.711 171.816 171.418 171.68C171.123 171.543 170.587 171.285 169.808 170.905C169.33 170.904 168.949 170.911 168.664 170.926C168.379 170.941 168.196 170.988 168.115 171.066C168.055 171.125 168.055 171.196 168.121 171.279C168.185 171.363 168.311 171.453 168.495 171.551C168.679 171.649 168.887 171.745 169.118 171.842L174.191 173.95C174.611 174.125 175.149 174.366 175.807 174.675C176.463 174.983 177.068 175.343 177.619 175.756C178.171 176.168 178.536 176.615 178.716 177.098C178.896 177.58 178.713 178.088 178.167 178.621C177.571 179.203 176.728 179.545 175.635 179.646C174.543 179.747 173.187 179.595 171.567 179.188C169.943 178.78 168.03 178.119 165.824 177.202ZM168.426 175.583C169.644 176.09 170.62 176.453 171.353 176.674C172.086 176.894 172.648 176.994 173.042 176.975C173.437 176.956 173.729 176.853 173.921 176.665C174.102 176.488 174.173 176.316 174.132 176.152C174.091 175.987 173.976 175.838 173.785 175.702C173.594 175.567 173.383 175.443 173.151 175.333C172.92 175.223 172.72 175.133 172.552 175.063L168.487 173.373C167.711 173.05 167.049 172.898 166.505 172.918C165.96 172.937 165.573 173.061 165.341 173.288C165.149 173.475 165.125 173.673 165.271 173.882C165.417 174.09 165.749 174.33 166.264 174.601C166.782 174.871 167.501 175.199 168.426 175.583ZM173.099 170.712C174.002 171.087 174.796 171.256 175.48 171.216C176.164 171.177 176.683 170.985 177.036 170.64C177.42 170.266 177.504 169.861 177.29 169.427C177.075 168.993 176.537 168.597 175.675 168.239C174.814 167.881 174.018 167.723 173.287 167.763C172.556 167.804 172 168.012 171.616 168.387C171.384 168.614 171.278 168.862 171.301 169.132C171.325 169.402 171.482 169.671 171.776 169.941C172.07 170.211 172.512 170.468 173.099 170.712Z" fill="white"/>
<path d="M188.883 183.286C187.37 182.657 186.14 181.987 185.191 181.276C184.241 180.565 183.56 179.849 183.145 179.128C182.731 178.408 182.568 177.711 182.659 177.038C182.749 176.365 183.076 175.753 183.642 175.2L183.991 174.86C184.567 174.298 185.33 173.852 186.281 173.523C187.232 173.194 188.319 173.01 189.542 172.97C190.766 172.93 192.079 173.044 193.484 173.311C194.887 173.577 196.314 174.012 197.763 174.615C199.254 175.235 200.47 175.898 201.407 176.604C202.345 177.311 203.028 178.027 203.453 178.752C203.878 179.477 204.051 180.186 203.972 180.877C203.893 181.568 203.566 182.195 202.99 182.757L202.641 183.098C202.075 183.651 201.328 184.088 200.397 184.412C199.467 184.735 198.401 184.921 197.198 184.97C195.996 185.019 194.692 184.909 193.289 184.642C191.884 184.375 190.415 183.923 188.883 183.286ZM190.928 181.288C191.915 181.698 192.835 181.94 193.689 182.014C194.542 182.087 195.324 182.019 196.034 181.807C196.744 181.596 197.321 181.274 197.765 180.839C198.24 180.376 198.478 179.895 198.481 179.396C198.481 178.897 198.258 178.407 197.808 177.925C197.359 177.442 196.662 177.005 195.716 176.612C194.791 176.227 193.887 175.999 193.004 175.927C192.119 175.855 191.324 175.922 190.619 176.128C189.914 176.335 189.323 176.669 188.848 177.133C188.404 177.567 188.167 178.031 188.141 178.526C188.113 179.02 188.334 179.507 188.805 179.984C189.275 180.46 189.983 180.895 190.928 181.288Z" fill="white"/>
<path d="M209.029 178.35L210.817 176.604L217.937 179.564L216.15 181.31L209.029 178.35ZM201.805 188.257L212.866 177.456L217.939 179.565L206.878 190.365L201.805 188.257Z" fill="white"/>
<path d="M217.727 195.255C216.509 194.748 215.507 194.184 214.721 193.562C213.936 192.94 213.365 192.292 213.008 191.616C212.651 190.941 212.536 190.27 212.663 189.606C212.789 188.941 213.151 188.318 213.748 187.736L214.097 187.395C214.692 186.814 215.432 186.347 216.314 185.997C217.197 185.646 218.184 185.428 219.277 185.34C220.37 185.253 221.517 185.308 222.723 185.507C223.927 185.705 225.138 186.057 226.356 186.563C227.742 187.139 228.796 187.778 229.516 188.478C230.236 189.178 230.601 189.921 230.607 190.703C230.613 191.487 230.239 192.291 229.483 193.116L228.75 191.989L234.447 186.425L239.52 188.534L228.459 199.335L224.458 197.671L227.897 194.313L228.591 194.601C227.74 195.344 226.727 195.859 225.552 196.143C224.376 196.429 223.12 196.493 221.782 196.338C220.443 196.183 219.091 195.822 217.727 195.255ZM221.017 193.796C221.794 194.119 222.587 194.332 223.395 194.436C224.202 194.539 224.961 194.514 225.674 194.36C226.386 194.206 226.969 193.907 227.424 193.462L227.984 192.915C228.429 192.481 228.603 192.033 228.507 191.572C228.411 191.11 228.118 190.664 227.628 190.236C227.138 189.808 226.515 189.436 225.759 189.122C224.919 188.772 224.065 188.561 223.196 188.489C222.327 188.416 221.526 188.476 220.789 188.669C220.052 188.863 219.446 189.191 218.972 189.655C218.487 190.128 218.257 190.616 218.281 191.118C218.305 191.621 218.557 192.105 219.038 192.573C219.516 193.038 220.177 193.447 221.017 193.796Z" fill="white"/>
<path d="M88.5531 187.23C82.1988 188.894 80.5139 194.32 84.8048 199.289L117.04 236.6C121.159 241.362 129.67 245.068 135.967 244.832L194.74 242.612L144.199 213.818L131.862 211.033L114.877 194.277C108.737 188.215 96.8849 185.045 88.5459 187.23H88.5531Z" fill="#31C8EC" stroke="#181818" stroke-miterlimit="10"/>
<path d="M83.9766 196.453C83.9766 196.453 86.4397 198.638 92.3655 198.124L100.776 209.461C100.776 209.461 100.126 211.703 97.3561 212.674" stroke="#181818" stroke-linecap="round" stroke-linejoin="round"/>
<path d="M275.602 146.527C275.602 154.124 279.086 157.779 279.086 157.779" stroke="#181818" stroke-linecap="round" stroke-linejoin="round"/>
<path d="M315.819 163.203C315.347 166.673 315.919 169.165 316.297 170.343" stroke="#181818" stroke-linecap="round" stroke-linejoin="round"/>
<path d="M245.08 264.437C245.08 264.437 240.782 255.427 239.89 246.773" stroke="#181818" stroke-linecap="round" stroke-linejoin="round"/>
<path d="M134.724 241.352C132.782 238.582 130.897 233.556 130.533 230.193L127.949 206.126C127.442 201.421 130.84 198.265 135.495 199.115L141.421 200.193C147.768 201.349 154.079 207.454 155.443 213.765L157.942 225.331L170.365 236.283L201.643 239.739L239.89 261.607L167.052 267.383C157.956 268.104 151.295 264.992 146.383 257.988L134.724 241.352Z" fill="#31C8EC" stroke="#181818" stroke-miterlimit="10"/>
<path d="M137.28 244.993L134.724 241.345C132.782 238.575 130.905 233.563 130.541 230.207L127.956 206.133" stroke="#181818" stroke-linecap="round" stroke-linejoin="round"/>
<path d="M131.861 220.268L140.457 222.31C143.506 223.038 143.742 222.895 144.648 219.897L147.447 210.637C147.447 210.637 144.377 206.082 138.137 204.882L132.611 204.004" stroke="#181818" stroke-linecap="round" stroke-linejoin="round"/>
<path d="M157.113 221.484L158.391 227.396C159.826 234.05 157.435 237.863 157.435 237.863" stroke="#181818" stroke-linecap="round" stroke-linejoin="round"/>
<path d="M165.089 233.465C165.089 233.465 168.495 236.606 168.637 239.748" stroke="#181818" stroke-linecap="round" stroke-linejoin="round"/>
<path d="M241.009 257.088L214.794 254.547L202.793 251.077L203.871 227.409C203.014 221.348 197.367 215.643 191.319 214.729L186.586 214.015C182.409 213.387 182.202 213.516 180.995 217.571L174.07 240.91C172.714 245.494 173.285 252.776 175.348 257.088L181.045 269.011C183.587 274.323 190.37 279.671 196.124 280.899L238.862 290.03" fill="#31C8EC"/>
<path d="M241.009 257.088L214.794 254.547L202.793 251.077L203.871 227.409C203.014 221.348 197.367 215.643 191.319 214.729L186.586 214.015C182.409 213.387 182.202 213.516 180.995 217.571L174.07 240.91C172.714 245.494 173.285 252.776 175.348 257.088L181.045 269.011C183.587 274.323 190.37 279.671 196.124 280.899L238.862 290.03" stroke="#181818" stroke-miterlimit="10"/>
<path d="M178.696 225.348L174.077 240.912C172.72 245.495 173.292 252.778 175.355 257.09L181.052 269.013C181.366 269.677 181.752 270.341 182.195 270.998" stroke="#181818" stroke-linecap="round" stroke-linejoin="round"/>
<path d="M235.82 255.34L214.801 254.548L203.878 251.699" stroke="#181818" stroke-linecap="round" stroke-linejoin="round"/>
<path d="M203.878 234.449L203.264 246.001C203.114 250.663 200.722 254.119 197.659 255.432" stroke="#181818" stroke-linecap="round" stroke-linejoin="round"/>
<path d="M214.272 258.719L214.801 262.938" stroke="#181818" stroke-linecap="round" stroke-linejoin="round"/>
<path d="M180.253 232.864L186.836 234.142C188.728 234.513 190.927 233.378 191.719 231.622L196.367 221.355C196.367 221.355 194.097 218.263 188.535 217.542L183.708 216.914" stroke="#181818" stroke-linecap="round" stroke-linejoin="round"/>
<path d="M35.0947 103.139C53.9246 103.139 69.1893 87.8854 69.1893 69.0694C69.1893 50.2534 53.9246 35 35.0947 35C16.2647 35 1 50.2534 1 69.0694C1 87.8854 16.2647 103.139 35.0947 103.139Z" fill="#1455FE" stroke="#181818" stroke-linecap="round" stroke-linejoin="round"/>
<path d="M24.5262 45.9293C24.5205 47.8567 26.1337 49.3885 28.0568 49.2909C34.9056 48.941 51.2038 49.7383 60.4465 63.833C61.2904 65.1237 63.1447 65.2328 64.1378 64.0568C66.1414 61.6819 65.573 59.806 65.2515 59.1348C65.1252 58.8652 65.0047 58.5841 64.9013 58.303C61.9333 50.1112 55.6299 43.17 46.9039 39.6707C41.1344 37.3532 35.0836 36.8598 29.3887 37.9038C27.4024 38.271 25.7663 39.7051 25.152 41.6269C24.6812 43.1069 24.5262 44.6213 24.5205 45.9293H24.5262Z" fill="#31C8EC"/>
<path fill-rule="evenodd" clip-rule="evenodd" d="M14.2006 68.9562C13.5972 69.0292 13.0627 69.1887 12.6569 69.4167C12.3757 69.5746 12.2148 69.6976 12.0146 69.9075C11.7304 70.2055 11.5417 70.5371 11.4268 70.9406C11.302 71.3788 11.3186 71.5273 11.502 71.6129C11.549 71.6348 12.8333 71.7288 12.9905 71.7218C13.1414 71.7152 13.2089 71.6243 13.288 71.3213C13.4134 70.8412 13.8102 70.5491 14.3717 70.5237C14.9075 70.4994 15.2614 70.7438 15.3728 71.215C15.4103 71.3736 15.4517 72.0944 15.4233 72.0956C15.3682 72.0981 14.4632 72.2376 14.2278 72.28C13.0784 72.4868 12.3971 72.7939 11.908 73.3258C11.4504 73.8234 11.2376 74.4472 11.2705 75.1949C11.3015 75.901 11.5183 76.4366 11.9334 76.832C12.2714 77.154 12.6814 77.3301 13.2133 77.3818C13.4205 77.4019 14.0348 77.3574 14.2657 77.3056C14.8215 77.1809 15.2139 76.9461 15.7262 76.4317L15.9326 76.2245L16.0264 76.3536C16.2498 76.6611 16.4958 76.9193 16.7397 77.1021C16.8929 77.217 17.0314 77.2128 17.1727 77.0889C17.258 77.0142 18.1281 76.1898 18.2334 76.0839C18.376 75.9405 18.3525 75.8443 18.0937 75.5139C17.8597 75.2152 17.7404 74.9993 17.6826 74.7708C17.6421 74.6101 17.6353 74.5063 17.569 73.0193C17.5303 72.1499 17.4844 71.3046 17.4672 71.1408C17.3877 70.3861 17.1904 69.9498 16.7585 69.5736C16.3677 69.2333 15.8173 69.025 15.1153 68.9518C14.9234 68.9318 14.3804 68.9344 14.2006 68.9562ZM33.2654 68.1196C31.9106 68.3005 30.9975 68.9335 30.6473 69.9346C30.5619 70.1788 30.4977 70.4973 30.5171 70.5805C30.5364 70.6633 30.5997 70.7355 30.6781 70.7643C30.7372 70.786 32.015 70.8786 32.1632 70.8719C32.3015 70.8656 32.3968 70.7558 32.4309 70.5637C32.4649 70.372 32.5562 70.1901 32.6927 70.0421C32.9101 69.8063 33.1665 69.6934 33.5284 69.6741C33.7548 69.662 33.8788 69.6807 34.052 69.753C34.2148 69.8209 34.344 69.9339 34.4321 70.0852C34.5387 70.2683 34.5679 70.4011 34.6007 70.8519C34.6259 71.1981 34.6259 71.2444 34.6007 71.2455C34.554 71.2476 33.7137 71.3753 33.4763 71.4164C32.475 71.5898 31.8081 71.8404 31.3565 72.2129C31.1655 72.3704 30.9139 72.6553 30.7977 72.8456C30.6244 73.1293 30.5123 73.4522 30.4564 73.8281C30.4217 74.0617 30.447 74.6293 30.5029 74.8726C30.6704 75.6019 31.0729 76.1056 31.6973 76.3672C32.0232 76.5038 32.3405 76.5509 32.7977 76.5307C33.7164 76.4899 34.2903 76.2231 34.9464 75.5316L35.0996 75.3702L35.2026 75.5105C35.3864 75.7609 35.5459 75.9358 35.7631 76.1253C36.1026 76.4215 36.1647 76.4178 36.5158 76.08C36.6399 75.9605 36.8932 75.7207 37.0787 75.547C37.2641 75.3733 37.4334 75.2046 37.4548 75.1721C37.5318 75.0553 37.4933 74.9488 37.2779 74.682C37.1853 74.5672 37.0656 74.3905 37.0048 74.2787C36.8125 73.9252 36.8332 74.0961 36.7258 71.9756C36.6426 70.3316 36.6265 70.0863 36.5911 69.9195C36.4776 69.3852 36.2961 69.0538 35.9478 68.7449C35.692 68.5179 35.4618 68.3884 35.1008 68.2683C34.8927 68.1992 34.533 68.1258 34.2812 68.1012C34.0325 68.077 33.5148 68.0864 33.2654 68.1196ZM22.6158 68.6658C22.2847 68.7256 21.9267 68.8915 21.6971 69.0916C21.4607 69.2977 21.2849 69.5519 21.1348 69.9048L21.0456 70.1144L21.0225 69.6076C20.9995 69.1029 20.9992 69.1006 20.9505 69.0251C20.8628 68.8894 20.8713 68.8903 20.0167 68.9282C19.2637 68.9615 19.2611 68.9618 19.2022 69.0059C19.1696 69.0303 19.1267 69.0745 19.1067 69.1042L19.0705 69.1581L19.234 72.9608C19.4175 77.2289 19.3903 76.8753 19.5419 76.9665L19.6193 77.013L20.4231 76.9773C21.1937 76.9432 21.2293 76.9401 21.2878 76.902C21.3214 76.8801 21.3653 76.8379 21.3853 76.8083L21.4218 76.7544L21.3225 74.2826C21.2339 72.0768 21.2257 71.7907 21.2462 71.6245C21.3259 70.9789 21.5542 70.6631 22.0028 70.5775C22.1887 70.542 22.4052 70.5587 22.5564 70.6201C22.8338 70.7328 23.0082 71.036 23.0843 71.5376C23.1017 71.6519 23.1508 72.6031 23.2205 74.1768C23.3382 76.832 23.3264 76.6858 23.4309 76.772C23.4556 76.7924 23.5045 76.8173 23.5395 76.8273C23.6207 76.8507 25.0529 76.7895 25.1471 76.7587C25.2322 76.7309 25.3239 76.625 25.341 76.5347C25.349 76.4927 25.3105 75.4768 25.2493 74.1145C25.1396 71.6697 25.1369 71.518 25.1985 71.2177C25.2954 70.745 25.6561 70.4186 26.102 70.4C26.4592 70.3851 26.7281 70.5126 26.8634 70.761C26.9936 71.0001 26.9783 70.8203 27.121 73.7907L27.2507 76.4894L27.2963 76.5479C27.3923 76.6709 27.3731 76.6692 28.2642 76.6297C29.0361 76.5955 29.069 76.5926 29.1295 76.5539C29.1669 76.53 29.208 76.4793 29.2307 76.429L29.269 76.3444L29.1263 73.2665C28.9697 69.8856 28.9867 70.1059 28.852 69.7225C28.6195 69.0613 28.0519 68.6166 27.2704 68.4835C27.0468 68.4454 26.6046 68.4684 26.3711 68.5303C25.7039 68.707 25.2294 69.115 24.9566 69.7464L24.8829 69.917L24.7739 69.7287C24.6055 69.4377 24.4919 69.2924 24.2812 69.0983C24.0002 68.8396 23.7129 68.7037 23.336 68.6513C23.1807 68.6297 22.7699 68.638 22.6158 68.6658ZM47.5552 67.5526C46.9017 67.6567 46.4943 67.8221 46.0573 68.1606C45.7921 68.366 45.4544 68.7695 45.2658 69.1063C44.7265 70.0696 44.556 71.464 44.8139 72.8026C44.9272 73.3906 45.1616 74.0074 45.4371 74.4423C45.7688 74.9659 46.2374 75.3949 46.7334 75.629C46.9631 75.7374 47.2949 75.8369 47.5695 75.8798C47.8434 75.9225 48.4744 75.9002 48.7358 75.8386C49.3775 75.6874 49.8952 75.383 50.3314 74.9004C50.945 74.2215 51.3012 73.27 51.3556 72.164C51.3707 71.8595 51.3198 71.0724 51.2664 70.7846C50.9001 68.8068 49.7716 67.6266 48.1577 67.5335C47.9782 67.5232 47.6805 67.5326 47.5552 67.5526ZM55.8657 67.1915C55.1248 67.3135 54.6442 67.7453 54.3078 68.591L54.2355 68.7728L54.2106 68.2129C54.1833 67.5992 54.1794 67.5793 54.0684 67.4835L54.0071 67.4306L53.238 67.4598C52.3789 67.4924 52.3847 67.4914 52.3042 67.6246L52.2651 67.6893L52.4347 71.5145C52.6179 75.648 52.6001 75.3873 52.7055 75.4742C52.7302 75.4947 52.7791 75.5196 52.8141 75.5296C52.9027 75.555 54.326 75.4919 54.4222 75.4583C54.4603 75.445 54.5177 75.4045 54.5497 75.3683L54.608 75.3024L54.5154 72.9597C54.4495 71.2929 54.4273 70.5739 54.4383 70.468C54.5123 69.7545 54.7045 69.3641 55.0785 69.1668C55.4555 68.968 55.9216 69.0747 56.1377 69.4093C56.2078 69.518 56.2886 69.736 56.3325 69.9352C56.3653 70.084 56.3841 70.4106 56.4885 72.637C56.6208 75.4607 56.6006 75.2462 56.7423 75.3261C56.8092 75.3638 56.8211 75.3639 57.576 75.3359C58.4225 75.3046 58.4564 75.2996 58.552 75.1915L58.6109 75.125L58.4953 72.3942C58.3628 69.2624 58.3498 69.0981 58.1913 68.5682C58.0411 68.0663 57.7621 67.6889 57.3576 67.4406C56.9601 67.1967 56.4012 67.1033 55.8657 67.1915ZM38.4639 68.1224C38.4317 68.1401 38.388 68.1856 38.3668 68.2235C38.3287 68.2915 38.3285 68.301 38.3557 68.915C38.3823 69.515 38.3848 69.5394 38.4236 69.587C38.4458 69.6141 38.4876 69.6525 38.5165 69.6722C38.5682 69.7074 38.5923 69.7072 39.869 69.6597L41.1688 69.6113L39.8073 71.7669C39.0586 72.9524 38.4297 73.9653 38.4099 74.0178C38.3307 74.2275 38.3271 74.3034 38.361 75.0707C38.3912 75.7578 38.3946 75.7945 38.432 75.8504C38.479 75.9203 38.5763 75.9779 38.6429 75.9751C38.6693 75.9739 38.7847 75.9231 38.8994 75.8621C39.6621 75.4564 40.3754 75.2627 41.2507 75.2237C42.1348 75.1843 42.8716 75.3131 43.6586 75.6448C43.8616 75.7303 43.9091 75.7438 43.9631 75.7311C44.0472 75.7114 44.1438 75.604 44.1656 75.506C44.177 75.4543 44.1717 75.2258 44.1496 74.8165C44.1173 74.2184 44.1154 74.2021 44.0685 74.1093C44.0013 73.9763 43.9065 73.906 43.6407 73.7917C42.971 73.5039 42.372 73.3995 41.3606 73.3946L41.0986 73.3933L42.3339 71.4491C43.0133 70.3798 43.5999 69.4478 43.6375 69.3779C43.7491 69.1706 43.7532 69.1348 43.7287 68.5819C43.7077 68.1077 43.7052 68.0867 43.6618 68.0103C43.5717 67.852 43.8112 67.8548 41.0038 67.9797C38.7676 68.0792 38.5167 68.0933 38.4639 68.1224ZM48.239 69.119C48.6941 69.2391 48.9172 69.6285 49.0792 70.5851C49.1168 70.8073 49.1307 70.995 49.1626 71.7114C49.1889 72.3025 49.1959 72.6263 49.1852 72.7477C49.1154 73.5362 48.9176 74.0028 48.5666 74.2064C48.4048 74.3003 48.2787 74.3318 48.0639 74.3319C47.9059 74.332 47.873 74.3255 47.7453 74.2691C47.3119 74.0778 47.0502 73.4985 46.9308 72.4658C46.8828 72.051 46.8441 70.7983 46.8709 70.5302C46.9544 69.6971 47.2119 69.2464 47.6782 69.1175C47.8216 69.0778 48.0857 69.0786 48.239 69.119ZM15.5112 73.8376C15.5273 74.4217 15.5195 74.5357 15.4459 74.7986C15.307 75.2947 14.9851 75.679 14.5993 75.8095C14.5192 75.8365 14.4409 75.8462 14.2864 75.8481C14.0958 75.8505 14.0704 75.8463 13.9494 75.7931C13.7829 75.72 13.6564 75.6039 13.5649 75.4403C13.4593 75.2514 13.4235 75.1072 13.4123 74.8244C13.4009 74.5364 13.4317 74.3652 13.534 74.1469C13.7741 73.635 14.3809 73.3504 15.3694 73.2862L15.4958 73.2779L15.5112 73.8376ZM34.6902 72.7559C34.7075 73.1647 34.6993 73.5209 34.6683 73.7154C34.6131 74.0612 34.4562 74.408 34.2547 74.6299C34.0369 74.8697 33.8064 74.9842 33.5136 74.998C33.2279 75.0114 33.06 74.9528 32.8776 74.7759C32.6772 74.5815 32.5867 74.3144 32.5844 73.9097C32.5822 73.5379 32.6562 73.3012 32.8475 73.068C33.1485 72.701 33.7168 72.4891 34.5426 72.4362L34.6763 72.4277L34.6902 72.7559ZM40.9082 76.4132C39.9812 76.5211 39.0385 76.8743 38.5741 77.2878C38.4396 77.4075 38.4099 77.5429 38.5034 77.6101C38.5669 77.6558 38.6259 77.6533 39.0363 77.5878C39.9288 77.4452 40.7801 77.3708 41.2008 77.3986C41.5679 77.4228 41.8134 77.5015 41.9015 77.6232C42.1196 77.9243 41.9775 78.7945 41.4621 80.3145C41.2824 80.8445 41.2666 80.9418 41.3507 81.0022C41.4659 81.0851 41.6012 81.0111 41.8682 80.7192C42.5249 80.0014 42.979 78.9255 43.1297 77.7305C43.1591 77.4971 43.1386 76.8818 43.0975 76.7651C43.0827 76.7229 43.0454 76.6654 43.0147 76.6373C42.7692 76.4121 41.8016 76.3092 40.9082 76.4132ZM18.1447 77.9383C18.0184 78.0234 18.0343 78.201 18.1797 78.3306C18.2997 78.4376 18.7244 78.77 19.0067 78.9779C21.6921 80.9555 24.8964 82.1701 28.2097 82.4664C30.657 82.6852 32.984 82.4467 35.3568 81.7336C37.2836 81.1546 38.95 80.3491 40.3601 79.315C40.8739 78.9382 40.972 78.8417 40.9998 78.6855C41.0384 78.4686 40.8397 78.2688 40.5951 78.2786C40.5133 78.2819 40.4131 78.3206 39.9773 78.5171C37.4376 79.6622 34.821 80.3574 32.0637 80.6199C31.5981 80.6642 30.3918 80.7177 29.8962 80.7159C25.9919 80.7025 22.1693 79.8075 18.793 78.1162C18.3106 77.8745 18.26 77.8607 18.1447 77.9383Z" fill="white"/>
<path d="M138.095 69.1387C156.925 69.1387 172.189 53.8854 172.189 35.0694C172.189 16.2534 156.925 1 138.095 1C119.265 1 104 16.2534 104 35.0694C104 53.8854 119.265 69.1387 138.095 69.1387Z" fill="#1455FE" stroke="#181818" stroke-linecap="round" stroke-linejoin="round"/>
<path d="M127.526 11.9293C127.521 13.8567 129.134 15.3885 131.057 15.2909C137.906 14.941 154.204 15.7383 163.446 29.833C164.29 31.1237 166.145 31.2328 167.138 30.0568C169.141 27.6819 168.573 25.806 168.252 25.1348C168.125 24.8652 168.005 24.5841 167.901 24.303C164.933 16.1112 158.63 9.17003 149.904 5.67074C144.134 3.35318 138.084 2.85979 132.389 3.90384C130.402 4.27098 128.766 5.70511 128.152 7.62685C127.681 9.10688 127.526 10.6213 127.521 11.9293H127.526Z" fill="#31C8EC"/>
<path fill-rule="evenodd" clip-rule="evenodd" d="M123.651 23.8534C125.263 24.6645 126.454 25.8675 127.273 27.5099C129.11 31.1948 127.762 35.7392 124.213 37.8267C120.792 39.8394 116.553 39.155 113.915 36.1642C112.853 34.9594 112.055 33.0741 111.976 31.5812C111.96 31.2818 111.97 31.0239 111.999 31.0083C112.029 30.9925 112.593 31.4158 113.255 31.9487C114.358 32.8375 114.465 32.9598 114.551 33.4278C114.678 34.1161 114.829 34.413 115.261 34.8212C115.664 35.2025 116.465 35.4872 117.024 35.4478C117.773 35.3951 118.81 34.6201 119.013 33.9617C119.116 33.6255 122.139 32.5997 122.615 32.7391C123.127 32.8889 124.203 32.6728 124.825 32.2958C126.533 31.2601 126.741 28.8631 125.24 27.5124C124.605 26.9413 123.485 26.5981 122.724 26.7418C121.665 26.9418 120.619 27.735 120.38 28.5205C120.305 28.7659 119.881 29.1837 118.942 29.9371C117.849 30.8136 117.558 30.9904 117.323 30.9209C117.166 30.8743 116.822 30.8588 116.559 30.8865C116.081 30.9368 116.078 30.9349 114.271 29.4893L112.461 28.0417L112.646 27.6591C114.165 24.5096 117.333 22.6904 120.754 23.003C121.799 23.0985 122.642 23.3461 123.651 23.8534ZM124.585 28.3636C125.065 28.8313 125.316 29.7026 125.14 30.2956C124.985 30.8186 124.283 31.5011 123.724 31.6733C123.318 31.7982 123.127 31.7818 122.552 31.5723C121.427 31.1625 120.967 30.2813 121.298 29.1673C121.732 27.7018 123.468 27.2774 124.585 28.3636ZM122.803 28.2801C121.452 28.6847 121.217 30.3823 122.421 31.0474C123.931 31.8822 125.46 30.0071 124.305 28.7377C123.923 28.3174 123.306 28.1294 122.803 28.2801ZM135.906 32.5659C136.201 32.7261 136.515 32.9523 136.604 33.0685C136.748 33.2556 136.737 33.3165 136.508 33.5975C136.166 34.0168 136.104 34.0228 135.677 33.6768C135.236 33.3187 134.39 33.0518 134.087 33.1749C133.382 33.462 133.571 33.9841 134.663 34.7657C135.186 35.1399 135.623 35.5588 135.794 35.8495C136.036 36.2631 136.05 36.3962 135.902 36.8959C135.7 37.5766 135.221 38.0235 134.508 38.1977C133.749 38.383 131.887 37.7365 131.333 37.0952C131.234 36.9805 131.273 36.8755 131.539 36.5406L131.868 36.1275L132.287 36.4303C132.518 36.597 132.996 36.8189 133.349 36.9236C134.069 37.1371 134.477 37.0296 134.606 36.5923C134.691 36.3061 134.331 35.893 133.526 35.3532C132.556 34.7034 132.218 34.0292 132.457 33.2226C132.837 31.9446 134.264 31.6728 135.906 32.5659ZM142.603 35.1069L142.45 35.6238L141.581 35.3663L140.713 35.1089L140.015 37.4635L139.317 39.8182L138.738 39.6466L138.159 39.4749L138.856 37.1251L139.553 34.7752L138.666 34.4756L137.779 34.176L137.888 33.6773L137.997 33.1786L140.377 33.8843L142.756 34.59L142.603 35.1069ZM147.927 36.6861L147.774 37.203L146.443 36.8082L145.112 36.4134L144.924 37.0452L144.737 37.6769L145.895 38.0202L147.052 38.3635L146.899 38.8804L146.745 39.3973L145.588 39.054L144.43 38.7107L144.226 39.3998L144.022 40.089L145.353 40.4838L146.684 40.8786L146.531 41.3955L146.377 41.9124L144.467 41.3459L142.558 40.7795L143.409 37.9079L144.261 35.0363L146.171 35.6028L148.081 36.1692L147.927 36.6861ZM152.896 40.5967C153.042 42.255 153.145 43.6775 153.126 43.7577C153.102 43.8571 152.894 43.8453 152.475 43.7208L151.858 43.538L151.849 42.9418L151.841 42.3456L150.68 41.9659L149.519 41.5862L149.154 42.107L148.789 42.6278L148.165 42.4426L147.541 42.2574L148.138 41.466C149.938 39.0783 151.29 37.3117 151.37 37.2406C151.42 37.196 151.725 37.2546 152.047 37.3707L152.632 37.5816L152.896 40.5967ZM157.669 41.2567C157.865 42.5491 158.071 43.5804 158.127 43.5483C158.182 43.5163 158.897 42.7186 159.715 41.7754L161.201 40.0607L161.76 40.2263L162.318 40.3919L161.466 43.2635L160.615 46.135L160.097 45.9814L159.579 45.8278L160.066 44.0667L160.554 42.3056L159.218 43.7527C158.006 45.066 157.855 45.1915 157.581 45.1103C157.307 45.0291 157.251 44.8477 156.97 43.1483L156.661 41.2758L156.149 42.9673L155.637 44.6588L155.059 44.4872L154.48 44.3155L155.331 41.4439L156.183 38.5724L156.747 38.7396L157.311 38.9069L157.669 41.2567ZM150.895 39.6596C150.556 40.1261 150.237 40.5656 150.185 40.6361C150.115 40.731 150.308 40.8287 150.926 41.0121C151.544 41.1954 151.759 41.2185 151.752 41.1009C151.747 41.0136 151.719 40.471 151.689 39.8951C151.66 39.3192 151.607 38.8398 151.573 38.8297C151.539 38.8196 151.234 39.193 150.895 39.6596ZM117.965 31.9548C118.933 32.8695 118.571 34.3551 117.283 34.7493C116.659 34.9404 115.942 34.7289 115.532 34.2322C115.025 33.6183 115.141 33.4822 115.76 33.9643C116.457 34.5062 117.085 34.5487 117.598 34.0885C118.287 33.4701 118.208 32.6871 117.387 31.9928C117.086 31.7385 116.848 31.504 116.857 31.4716C116.899 31.3325 117.655 31.6628 117.965 31.9548Z" fill="url(#paint0_linear_1273_15106)"/>
<path d="M208.095 130.139C226.925 130.139 242.189 114.885 242.189 96.0694C242.189 77.2534 226.925 62 208.095 62C189.265 62 174 77.2534 174 96.0694C174 114.885 189.265 130.139 208.095 130.139Z" fill="#1455FE" stroke="#181818" stroke-linecap="round" stroke-linejoin="round"/>
<path d="M197.526 72.9293C197.521 74.8567 199.134 76.3885 201.057 76.2909C207.906 75.941 224.204 76.7383 233.446 90.833C234.29 92.1237 236.145 92.2328 237.138 91.0568C239.141 88.6819 238.573 86.806 238.252 86.1348C238.125 85.8652 238.005 85.5841 237.901 85.303C234.933 77.1112 228.63 70.17 219.904 66.6707C214.134 64.3532 208.084 63.8598 202.389 64.9038C200.402 65.271 198.766 66.7051 198.152 68.6269C197.681 70.1069 197.526 71.6213 197.521 72.9293H197.526Z" fill="#31C8EC"/>
<defs>
<linearGradient id="paint0_linear_1273_15106" x1="120.67" y1="23.5106" x2="129.457" y2="55.7298" gradientUnits="userSpaceOnUse">
<stop stop-color="white"/>
<stop offset="1" stop-color="white"/>
</linearGradient>
</defs>
</svg>
