<svg width="24" height="25" viewBox="0 0 24 25" fill="none" xmlns="http://www.w3.org/2000/svg">
<path fill-rule="evenodd" clip-rule="evenodd" d="M14.6601 7.45585C13.5555 7.45585 12.66 8.35134 12.66 9.45598C12.66 10.5606 13.5555 11.4561 14.6601 11.4561C15.7647 11.4561 16.6602 10.5606 16.6602 9.45598C16.6602 8.35134 15.7647 7.45585 14.6601 7.45585ZM13.66 9.45598C13.66 8.90366 14.1078 8.45592 14.6601 8.45592C15.2124 8.45592 15.6602 8.90366 15.6602 9.45598C15.6602 10.0083 15.2124 10.456 14.6601 10.456C14.1078 10.456 13.66 10.0083 13.66 9.45598Z" fill="#718096"/>
<path fill-rule="evenodd" clip-rule="evenodd" d="M17.8334 6.00801C15.9824 4.34948 13.1372 4.50546 11.4787 6.35653L10.7454 7.17489C9.58253 8.47276 9.59991 10.4172 10.7254 11.6924L4.39336 18.7594C3.82748 19.391 3.88073 20.3617 4.5123 20.9276C5.11276 21.4656 6.02706 21.4476 6.60584 20.8863L7.03029 20.4747L7.50372 20.8989C8.07973 21.415 8.96753 21.3563 9.47055 20.7689C9.95784 20.1998 9.90136 19.3457 9.34337 18.8457L8.86578 18.4178L9.19946 18.0454L9.70514 18.4985C10.2503 18.987 11.0922 18.9246 11.5594 18.3611C12.002 17.8274 11.9436 17.0393 11.4272 16.5766L10.8726 16.0797L12.9641 13.6977C14.3544 14.6742 16.2867 14.4782 17.4485 13.1815L18.1821 12.3628C19.8406 10.5117 19.6845 7.66654 17.8334 6.00801ZM12.2235 7.02389C13.5134 5.5842 15.7263 5.46285 17.1661 6.75283C18.6058 8.04281 18.7272 10.2557 17.4372 11.6954L16.7037 12.5141C15.8188 13.5017 14.301 13.5849 13.3135 12.7001C13.0656 12.478 12.6841 12.5008 12.4645 12.7509L9.46791 16.1638L10.7598 17.3214C10.876 17.4255 10.8891 17.6027 10.7896 17.7228C10.6845 17.8495 10.4951 17.8635 10.3725 17.7537L9.122 16.6332L7.4536 18.4953L8.67602 19.5906C8.82917 19.7278 8.84467 19.9622 8.71092 20.1184C8.57286 20.2796 8.32918 20.2958 8.17108 20.1541L7.00333 19.1078L5.90964 20.1684C5.70783 20.3641 5.38903 20.3704 5.17966 20.1828C4.95944 19.9855 4.94087 19.647 5.13819 19.4268L11.7226 12.0781C11.9431 11.832 11.9224 11.4537 11.6762 11.2331C10.6885 10.3481 10.6052 8.82998 11.4902 7.84225L12.2235 7.02389Z" fill="#718096"/>
</svg>
