<svg width="25" height="25" viewBox="0 0 25 25" fill="none" xmlns="http://www.w3.org/2000/svg">
<path fill-rule="evenodd" clip-rule="evenodd" d="M11.7126 12.4233H11.7437C14.5919 12.4233 16.909 10.1062 16.909 7.25807C16.909 4.40993 14.5919 2.0918 11.7437 2.0918C8.8946 2.0918 6.57747 4.40993 6.57747 7.25505C6.57244 8.63185 7.10446 9.92719 8.07395 10.9037C9.04244 11.8792 10.3348 12.4193 11.7126 12.4233ZM8.08602 7.25807C8.08602 5.24164 9.72732 3.60034 11.7437 3.60034C13.7602 3.60034 15.4005 5.24164 15.4005 7.25807C15.4005 9.27449 13.7602 10.9148 11.7437 10.9148H11.7156C10.7421 10.9128 9.8299 10.5306 9.14401 9.83969C8.45813 9.14979 8.083 8.23359 8.08602 7.25807Z" fill="#718096"/>
<path fill-rule="evenodd" clip-rule="evenodd" d="M4.11328 19.3264C4.11328 22.972 9.86185 22.972 11.7506 22.972C13.6393 22.972 19.3888 22.972 19.3888 19.3042C19.3888 16.4953 15.891 14.1219 11.7506 14.1219C7.6111 14.1219 4.11328 16.5054 4.11328 19.3264ZM5.62183 19.3264C5.62183 17.5815 8.24268 15.6304 11.7506 15.6304C15.2594 15.6304 17.8803 17.5704 17.8803 19.3042C17.8803 20.7363 15.8176 21.4635 11.7506 21.4635C7.68451 21.4635 5.62183 20.7444 5.62183 19.3264Z" fill="#718096"/>
</svg>
