<svg width="26" height="26" viewBox="0 0 26 26" fill="none" xmlns="http://www.w3.org/2000/svg">
<path d="M10.1531 7.30751C10.5535 6.16286 10.7537 5.59054 10.9331 5.32029C11.9563 3.779 14.2197 3.779 15.2429 5.32029C15.4223 5.59054 15.6321 6.19029 16.0517 7.38979C16.1394 7.6405 16.1833 7.76586 16.2305 7.87023C16.6154 8.7205 17.4285 9.29747 18.3581 9.37998C18.4723 9.39011 18.5982 9.39011 18.8501 9.39011H19.103C19.8293 9.39011 20.1924 9.39011 20.3738 9.41594C22.5133 9.72056 23.3579 12.3591 21.793 13.8495C21.6603 13.9759 21.3647 14.1867 20.7734 14.6085C20.6045 14.729 20.5201 14.7892 20.4481 14.8488C19.6676 15.4953 19.3367 16.5381 19.6014 17.5163C19.6258 17.6065 19.6612 17.7077 19.732 17.91C20.0302 18.7624 20.1793 19.1886 20.2158 19.4115C20.5484 21.4429 18.4901 23.0299 16.6101 22.1918C16.4038 22.0998 16.0412 21.8551 15.3161 21.3658L14.8424 21.0461C14.547 20.8468 14.3993 20.7471 14.2534 20.6735C13.5205 20.3036 12.6555 20.3036 11.9227 20.6735C11.7767 20.7471 11.629 20.8468 11.3336 21.0461L10.8809 21.3517C10.1388 21.8524 9.76783 22.1027 9.5563 22.196C7.68158 23.0227 5.63569 21.4452 5.95855 19.4219C5.99498 19.1936 6.14744 18.7578 6.45235 17.8862C6.52398 17.6814 6.5598 17.579 6.58448 17.4874C6.84424 16.5233 6.52585 15.4958 5.76646 14.8475C5.69429 14.7858 5.60959 14.7237 5.44019 14.5993C4.85129 14.1669 4.55684 13.9507 4.42355 13.8195C2.90052 12.3197 3.75087 9.72462 5.86616 9.41703C6.05128 9.39011 6.41657 9.39011 7.14715 9.39011H7.33435C7.57818 9.39011 7.70009 9.39011 7.81057 9.38062C8.74569 9.30029 9.56391 8.71969 9.94852 7.86354C9.99396 7.76239 10.0342 7.64732 10.1147 7.41718L10.1531 7.30751Z" stroke="#EF4F44" stroke-width="1.55187" stroke-linejoin="round"/>
</svg>
