<svg width="177" height="238" viewBox="0 0 177 238" fill="none" xmlns="http://www.w3.org/2000/svg">
<g filter="url(#filter0_d_13131_878)">
<ellipse cx="119.215" cy="114.261" rx="26.4949" ry="26.4949" fill="#EF4F44" fill-opacity="0.08" shape-rendering="crispEdges"/>
</g>
<path d="M116.153 108.308C116.554 107.163 116.754 106.591 116.933 106.32C117.956 104.779 120.22 104.779 121.243 106.32C121.422 106.591 121.632 107.19 122.052 108.39C122.139 108.641 122.183 108.766 122.231 108.87C122.615 109.72 123.428 110.297 124.358 110.38C124.472 110.39 124.598 110.39 124.85 110.39H125.103C125.829 110.39 126.192 110.39 126.374 110.416C128.513 110.721 129.358 113.359 127.793 114.85C127.66 114.976 127.365 115.187 126.773 115.609C126.604 115.729 126.52 115.789 126.448 115.849C125.668 116.495 125.337 117.538 125.601 118.516C125.626 118.607 125.661 118.708 125.732 118.91C126.03 119.762 126.179 120.189 126.216 120.412C126.548 122.443 124.49 124.03 122.61 123.192C122.404 123.1 122.041 122.855 121.316 122.366L120.842 122.046C120.547 121.847 120.399 121.747 120.253 121.673C119.52 121.304 118.656 121.304 117.923 121.673C117.777 121.747 117.629 121.847 117.334 122.046L116.881 122.352C116.139 122.852 115.768 123.103 115.556 123.196C113.682 124.023 111.636 122.445 111.959 120.422C111.995 120.194 112.147 119.758 112.452 118.886C112.524 118.681 112.56 118.579 112.584 118.487C112.844 117.523 112.526 116.496 111.766 115.847C111.694 115.786 111.61 115.724 111.44 115.599C110.851 115.167 110.557 114.951 110.424 114.819C108.901 113.32 109.751 110.725 111.866 110.417C112.051 110.39 112.417 110.39 113.147 110.39H113.334C113.578 110.39 113.7 110.39 113.811 110.381C114.746 110.3 115.564 109.72 115.949 108.864C115.994 108.762 116.034 108.647 116.115 108.417L116.153 108.308Z" stroke="#EF4F44" stroke-width="1.55187" stroke-linejoin="round"/>
<defs>
<filter id="filter0_d_13131_878" x="0.563644" y="0.217348" width="237.302" height="237.3" filterUnits="userSpaceOnUse" color-interpolation-filters="sRGB">
<feFlood flood-opacity="0" result="BackgroundImageFix"/>
<feColorMatrix in="SourceAlpha" type="matrix" values="0 0 0 0 0 0 0 0 0 0 0 0 0 0 0 0 0 0 127 0" result="hardAlpha"/>
<feOffset dy="4.6078"/>
<feGaussianBlur stdDeviation="46.078"/>
<feComposite in2="hardAlpha" operator="out"/>
<feColorMatrix type="matrix" values="0 0 0 0 0.411765 0 0 0 0 0.435294 0 0 0 0 0.52549 0 0 0 0.25 0"/>
<feBlend mode="normal" in2="BackgroundImageFix" result="effect1_dropShadow_13131_878"/>
<feBlend mode="normal" in="SourceGraphic" in2="effect1_dropShadow_13131_878" result="shape"/>
</filter>
</defs>
</svg>
