<svg width="120" height="44" viewBox="0 0 120 44" fill="none" xmlns="http://www.w3.org/2000/svg">
<rect width="120" height="43.9998" rx="21.9999" fill="#FAFAFA"/>
<rect x="0.499998" y="0.499998" width="119" height="42.9998" rx="21.4999" stroke="#0052FF" stroke-opacity="0.33" stroke-width="0.999996"/>
<path d="M27 12.25C32.3848 12.25 36.75 16.6152 36.75 22C36.75 27.3848 32.3848 31.75 27 31.75C21.6152 31.75 17.25 27.3848 17.25 22C17.25 16.6152 21.6152 12.25 27 12.25ZM29.8281 19.1729C29.5352 18.8802 29.0594 18.88 28.7666 19.1729L25.4512 22.4883V20.7637C25.4511 20.3495 25.1153 20.0137 24.7012 20.0137C24.2872 20.0139 23.9512 20.3497 23.9512 20.7637V24.2998C23.9515 24.7136 24.2873 25.0486 24.7012 25.0488H28.2363C28.6504 25.0488 28.986 24.7138 28.9863 24.2998C28.9863 23.8856 28.6505 23.5498 28.2363 23.5498H26.5117L29.8281 20.2334C30.1207 19.9406 30.1207 19.4657 29.8281 19.1729Z" fill="#0052FF"/>
<path d="M48.1865 26L45.8225 17.24H47.0345L49.0145 24.944H49.3865L50.9945 17.6H52.4945L54.3065 24.944H54.6785L56.4425 17.24H57.6185L55.4705 26H53.4545L51.7385 19.16L50.1905 26H48.1865ZM59.5775 18.56C59.3215 18.56 59.1295 18.492 59.0015 18.356C58.8815 18.22 58.8215 18.048 58.8215 17.84C58.8215 17.632 58.8815 17.46 59.0015 17.324C59.1295 17.188 59.3215 17.12 59.5775 17.12C59.8335 17.12 60.0215 17.188 60.1415 17.324C60.2695 17.46 60.3335 17.632 60.3335 17.84C60.3335 18.048 60.2695 18.22 60.1415 18.356C60.0215 18.492 59.8335 18.56 59.5775 18.56ZM59.2535 26V20.504H58.2695V19.592H60.4055V26H59.2535ZM65.1288 26.072C64.6488 26.072 64.2328 26.004 63.8809 25.868C63.5369 25.732 63.2689 25.5 63.0769 25.172C62.8929 24.836 62.8009 24.384 62.8009 23.816V20.456H61.6969V19.592H62.8009V17.648H63.9049V19.592H66.1128V20.456H63.9049V23.96C63.9049 24.304 63.9969 24.572 64.1809 24.764C64.3728 24.948 64.6408 25.04 64.9848 25.04H66.1128V26.072H65.1288ZM67.7422 26V17.24H68.8942V20.72C69.0702 20.296 69.3222 19.972 69.6502 19.748C69.9862 19.516 70.4142 19.4 70.9342 19.4H70.9822C71.7502 19.4 72.3302 19.656 72.7222 20.168C73.1142 20.672 73.3102 21.396 73.3102 22.34V26H72.1582V22.1C72.1582 21.58 72.0102 21.176 71.7142 20.888C71.4262 20.6 71.0502 20.456 70.5862 20.456C70.0742 20.456 69.6622 20.628 69.3502 20.972C69.0462 21.308 68.8942 21.752 68.8942 22.304V26H67.7422ZM78.094 26.216C77.486 26.216 76.942 26.068 76.462 25.772C75.99 25.476 75.618 25.08 75.346 24.584C75.074 24.08 74.938 23.52 74.938 22.904V22.688C74.938 22.08 75.07 21.528 75.334 21.032C75.598 20.528 75.962 20.128 76.426 19.832C76.898 19.528 77.442 19.376 78.058 19.376C78.53 19.376 78.9619 19.472 79.3539 19.664C79.7539 19.856 80.0779 20.156 80.3259 20.564V17.24H81.4779V26H80.5659V24.68C80.3179 25.224 79.9699 25.616 79.5219 25.856C79.0819 26.096 78.606 26.216 78.094 26.216ZM78.25 25.208C78.642 25.208 78.9979 25.12 79.3179 24.944C79.6379 24.768 79.8939 24.516 80.0859 24.188C80.2779 23.852 80.3739 23.46 80.3739 23.012V22.46C80.3739 22.02 80.2739 21.648 80.0739 21.344C79.8819 21.032 79.6219 20.796 79.2939 20.636C78.9739 20.468 78.622 20.384 78.238 20.384C77.598 20.384 77.078 20.604 76.678 21.044C76.286 21.484 76.09 22.068 76.09 22.796C76.09 23.284 76.182 23.712 76.366 24.08C76.55 24.44 76.806 24.72 77.134 24.92C77.462 25.112 77.834 25.208 78.25 25.208ZM83.6914 26V19.592H84.6034V21.512C84.6994 20.824 84.9514 20.32 85.3594 20C85.7674 19.68 86.3234 19.52 87.0274 19.52H87.2434V20.552H86.8354C86.1954 20.552 85.7034 20.724 85.3594 21.068C85.0154 21.404 84.8434 21.892 84.8434 22.532V26H83.6914ZM90.3658 26.168C89.6378 26.168 89.0658 25.988 88.6498 25.628C88.2418 25.26 88.0378 24.744 88.0378 24.08C88.0378 23.4 88.2658 22.888 88.7218 22.544C89.1778 22.192 89.8218 22.016 90.6538 22.016H92.2738V21.86C92.2738 20.972 91.8258 20.528 90.9298 20.528C90.5618 20.528 90.1778 20.536 89.7778 20.552C89.3778 20.568 89.0458 20.584 88.7818 20.6V19.592C89.0378 19.568 89.3218 19.552 89.6338 19.544C89.9538 19.528 90.2578 19.52 90.5458 19.52C91.5298 19.52 92.2458 19.7 92.6938 20.06C93.1498 20.42 93.3778 21.048 93.3778 21.944V26H92.4658V24.728C92.1778 25.688 91.4778 26.168 90.3658 26.168ZM90.6058 25.256C90.8778 25.256 91.1378 25.208 91.3858 25.112C91.6338 25.008 91.8378 24.84 91.9978 24.608C92.1658 24.368 92.2578 24.04 92.2738 23.624V22.88H90.6058C90.1418 22.88 89.7858 22.992 89.5378 23.216C89.2898 23.44 89.1658 23.728 89.1658 24.08C89.1658 24.432 89.2898 24.716 89.5378 24.932C89.7858 25.148 90.1418 25.256 90.6058 25.256ZM96.4887 26L94.6767 19.592H95.7807L97.2927 25.088H97.5327L98.6367 19.808H100.197L101.481 25.088H101.721L103.041 19.592H104.085L102.513 26H100.725L99.4167 20.672L98.2887 26H96.4887Z" fill="#0052FF"/>
</svg>
